<?xml version="1.0" standalone="no"?>
<!DOCTYPE svg PUBLIC "-//W3C//DTD SVG 1.1//EN" "http://www.w3.org/Graphics/SVG/1.1/DTD/svg11.dtd" >
<svg>
<metadata>
Created by FontForge 20110222 at Fri Apr  4 06:37:20 2014
 By Orthosie Webhosting
SIL Open Font License 1.1
</metadata>
<defs>
<font id="FontAwesomeRegular" horiz-adv-x="1792" >
  <font-face 
    font-family="FontAwesomeRegular"
    font-weight="400"
    font-stretch="normal"
    units-per-em="1792"
    panose-1="0 0 0 0 0 0 0 0 0 0"
    ascent="1536"
    descent="-256"
    bbox="-4 -400 9658 1546"
    underline-thickness="90"
    underline-position="-89"
    unicode-range="U+F002-F04C"
  />
<missing-glyph horiz-adv-x="0" 
 />
    <glyph glyph-name=".notdef" horiz-adv-x="0" 
 />
    <glyph glyph-name=".notdef" horiz-adv-x="0" 
 />
    <glyph glyph-name=".null" horiz-adv-x="0" 
 />
    <glyph glyph-name="nonmarkingreturn" horiz-adv-x="597" 
 />
    <glyph glyph-name="cm_rhino_positive" unicode="&#xf002;" horiz-adv-x="1825" 
d="M758 673q24 17 53 11q30 -5 47 -32q17 -25 12 -55q-6 -29 -31 -47q-25 -17 -54 -12q-29 6 -47 32q-17 25 -12 54q6 31 32 49zM349 1197q-30 -58 -57 -101q-28 -46 -54 -47t-59 47q-35 48 -22 108q12 59 98 98q86 40 89 45q0 -3 13 -46q18 -51 -8 -104zM621 1171
q-40 -23 -56 -44q-104 30 -201 0l3 6l3 6q52 95 14 185q-33 76 -35 83q-5 -8 -122 -62q-126 -58 -171 -168q-46 -109 -5 -200q14 -33 31 -56q-58 -84 -76 -188q-46 -250 170 -418q215 -169 493 -270q257 -93 462 19q-44 31 -91 79q-16 16 -30 32q70 -67 168 -89
q83 -17 156 4q212 129 254 345q-28 -9 -67 -4q-73 11 -127 71q-36 43 -46 88q9 -16 27 -40q66 -73 162 -81q37 -3 65 4q67 57 117 128q118 171 98 398q-18 217 -150 362q7 -39 10 -81q20 -227 -147 -386q-168 -161 -265 -172q-41 -5 -91 0q30 55 34 62q61 113 45 234
q-14 49 -101 -29q-87 -79 -176 -99q-29 -8 -54 -9q2 -3 -9 11q-79 80 -152 133q47 49 64 96q18 45 16 115q-3 67 -11 78q1 -12 -45 -47q-64 -44 -164 -96z" />
    <glyph glyph-name="cm_client_add" unicode="&#xf003;" horiz-adv-x="1238" 
d="M613 958l341 -112l156 400l-173 -117q-129 336 -428 256l-463 -206q679 10 756 -133zM579 443q12 -16 9 -37q-3 -20 -20 -32q-17 -11 -38 -7q-19 3 -31 19q-11 18 -7 38q3 20 19 32q16 10 37 7q20 -3 31 -20zM108 813q9 40 68 66q56 26 57 30q0 -1 11 -30q11 -34 -6 -71
q-17 -33 -38 -67q-20 -31 -37 -31t-40 31q-23 32 -15 72zM568 834q-2 45 -7 55q1 -8 -31 -31q-35 -27 -109 -67q-24 -13 -38 -29q-71 20 -135 0q2 4 3 8q36 63 9 124q-20 48 -22 56q-3 -6 -82 -42q-84 -39 -115 -114q-31 -73 -5 -135q10 -23 21 -36q-38 -57 -52 -126
q-29 -168 116 -282q145 -113 333 -181q173 -62 312 14q-32 21 -62 51l-22 22q48 -45 115 -59q54 -12 104 3q143 86 171 229q-21 -6 -47 -1q-49 8 -85 48q-23 26 -31 58q7 -12 20 -27q42 -48 107 -52q22 -3 45 2q47 41 78 86q79 115 67 267q-12 146 -102 244q5 -25 7 -55
q14 -152 -98 -259q-114 -108 -179 -115q-28 -3 -60 0q27 49 22 41q40 75 29 158q-9 33 -66 -20q-59 -53 -119 -66q-20 -5 -37 -6q-3 3 -5 6q-52 54 -103 91q30 31 43 63q12 33 10 77z" />
    <glyph glyph-name="cm_add" unicode="&#xf004;" horiz-adv-x="1408" 
d="M1202 1170q66 -78 57 -181q-9 -104 -88 -169q-79 -66 -182 -57q-102 9 -169 87q-66 80 -57 182q9 103 88 169t182 57q102 -9 169 -88zM1038 1320q-129 12 -227 -71q-99 -83 -110 -211q-11 -129 72 -227q82 -99 210 -110q129 -11 227 71q99 83 110 212t-71 227
q-83 98 -211 109zM1033 1202q0 9 -6 15t-15 7q-9 -1 -14 -7q-7 -6 -7 -15v-170h-170q-9 0 -15 -7q-6 -6 -6 -14q0 -9 6 -15t15 -7h170v-170q0 -9 7 -15q5 -7 14 -7t15 7q6 6 6 15v170h170q9 1 15 7t6 15q0 8 -6 14q-6 7 -15 7h-170v170z" />
    <glyph glyph-name="cm_add_edge" unicode="&#xf005;" horiz-adv-x="1408" 
d="M1400 10l8 -7v1403h-1403l1395 -1400v4z" />
    <glyph glyph-name="cm_addressbook" unicode="&#xf006;" 
d="M672 945h489v-832h-489v832zM538 840q34 0 59 -28q26 -30 26 -70q0 -41 -26 -71q-25 -28 -59 -28v-40q34 0 59 -29q26 -30 26 -71t-26 -71q-25 -29 -59 -30v-33q34 -1 59 -30q26 -30 26 -71t-26 -70q-25 -29 -59 -30v-166h719v1038h-719v-200zM720 749h391v94h-391v-94z
M468 802q-26 -1 -43 -18q-16 -17 -15 -42q-1 -25 15 -43q17 -16 43 -15h60q24 -1 40 15q17 18 17 43t-17 42q-16 17 -40 18h-60zM585 498q0 24 -17 42q-16 16 -40 16h-60q-26 0 -43 -16q-16 -18 -15 -42v-1q-1 -24 15 -42q17 -17 43 -17h60q24 0 40 17q17 17 17 42v1z
M468 328q-26 0 -43 -17q-16 -18 -15 -42v-1q-1 -25 15 -42q17 -17 43 -17h60q24 0 40 17q17 17 17 42v1q0 24 -17 42q-16 17 -40 17h-60z" />
    <glyph glyph-name="cm_left" unicode="&#xf007;" horiz-adv-x="773" 
d="M530 1405l-530 -702l530 -703h243l-529 703l529 702h-243z" />
    <glyph glyph-name="cm_right" unicode="&#xf008;" horiz-adv-x="770" 
d="M770 705l-530 703h-244l529 -703l-529 -704h244z" />
    <glyph glyph-name="cm_down" unicode="&#xf009;" horiz-adv-x="1405" 
d="M0 1082l702 -528l703 530v-244l-703 -530l-702 528v244z" />
    <glyph glyph-name="cm_up" unicode="&#xf00a;" horiz-adv-x="1395" 
d="M-3 550v-242l700 526l698 -526v242l-698 528z" />
    <glyph glyph-name="cm_change" unicode="&#xf00b;" 
d="M1292 1403h-1l-145 -169q-210 93 -429 15q-209 -74 -313 -265l158 -75q72 124 213 175q127 45 252 8l-122 -140l3 -3l342 -16q29 -44 47 -97q52 -140 2 -276l158 -75q81 202 7 411q-39 104 -101 179zM373 923q-82 -200 -7 -410q34 -96 95 -173l72 -335h1l145 170
q212 -95 434 -16q207 75 312 266l-158 75q-74 -125 -213 -175q-129 -46 -255 -7l119 139l-1 2l-337 17q-31 44 -48 97q-52 139 -2 275z" />
    <glyph glyph-name="cm_envelope_closed" unicode="&#xf00c;" 
d="M1509 756q0 37 -12 63l-470 -386l464 -381q16 26 18 67v637zM1463 852q-14 16 -41 21h-1053q-29 -7 -38 -22l530 -444q28 -24 57 -2zM299 816q-12 -24 -12 -60v-637q0 -36 12 -61l461 378zM335 18q31 -18 83 -18h957q46 -1 76 14l-468 383l-43 -37q-46 -36 -91 0l-45 37z
" />
    <glyph glyph-name="cm_envelope_open" unicode="&#xf00d;" 
d="M918 1292q-28 23 -57 -2l-536 -440h3q-3 -1 -5 -2l534 -442q28 -24 56 -1l543 443l1 2zM1509 759q0 37 -12 62l-473 -389l468 -385q16 27 17 68v644zM291 820q-13 -25 -12 -61v-644q-1 -36 12 -61l463 380zM325 14q32 -18 85 -18h965q47 0 77 15l-472 385l-43 -36
q-47 -38 -93 0l-45 36z" />
    <glyph glyph-name="cm_send" unicode="&#xf00e;" 
d="M1503 750q0 37 -12 63l-466 -383l460 -379q16 27 18 67v632zM1457 846q-14 16 -40 21h-1046q-28 -8 -37 -22l526 -441q28 -24 56 -2zM302 810q-12 -23 -12 -60v-632q0 -37 12 -60l458 374zM337 17q31 -17 83 -17h950q48 -1 76 13l-465 381l-43 -36q-45 -37 -90 0l-45 36z
M923 1285q-23 17 -46 -2l-394 -325h837z" />
    <glyph glyph-name="cm_checkbox_right" unicode="&#xf010;" 
d="M461 482q181 -123 306 -295l18 -23q264 373 488 621q81 -125 68 -278q-16 -183 -156 -300q-141 -118 -324 -101q-184 15 -300 155q-84 100 -100 221zM1099 942q-124 -174 -317 -479l-298 237q38 107 130 184q140 118 324 102q89 -8 161 -44zM1459 1369
q-147 -144 -293 -337q-97 54 -219 65q-229 20 -404 -127q-101 -85 -151 -197l-149 118l-53 -265q82 -34 156 -74q-4 -203 129 -361q147 -176 375 -195q229 -20 404 127q175 148 195 376q18 207 -100 369q208 219 424 374z" />
    <glyph glyph-name="cm_lock" unicode="&#xf011;" 
d="M1193 802h-565q2 113 2 238q10 97 82 170q82 83 199 83q116 0 198 -83q73 -73 84 -170q-1 -119 0 -238zM1425 802h-112v238q-10 149 -118 256q-117 116 -284 115q-167 1 -283 -115q-109 -107 -120 -256v-238h-123v-802h1040v802z" />
    <glyph glyph-name="cm_unlock" unicode="&#xf012;" 
d="M780 798h-122v-798h1037v798h-796v239q-10 148 -115 254q-119 117 -285 117q-165 0 -282 -117q-107 -107 -117 -254v-461h119q0 233 2 461q9 97 81 168q81 82 197 82t198 -82q73 -71 83 -168v-239z" />
    <glyph glyph-name="cm_fix" unicode="&#xf013;" 
d="M1600 294q0 1 2 28q4 129 -84 217q-89 89 -219 85q-53 -2 -96 -18l-399 399q15 46 17 98q3 129 -86 217q-87 88 -216 86q-102 -4 -180 -61l265 -153q46 -181 -135 -232l-268 155q-1 -14 -1 -29q-4 -128 85 -217q88 -88 217 -85q51 1 98 17l398 -399q-16 -46 -18 -97
q-3 -129 85 -218q88 -88 217 -84q102 2 181 61l-257 149q-47 182 134 232z" />
    <glyph glyph-name="cm_group" unicode="&#xf014;" 
d="M1580 404v256q-15 122 -101 174q-29 17 -56 28q-54 -49 -118 -71l27 -15q86 -51 102 -174v-198h146zM1180 1408q-84 0 -148 -51q95 -11 168 -84q84 -84 85 -204q-1 -73 -33 -135q54 16 98 59q71 72 71 173q0 100 -71 170q-71 72 -170 72zM791 1263q106 -12 185 -93
q95 -93 95 -227q0 -82 -35 -150q60 18 108 66q79 79 79 191t-79 190q-79 79 -189 79q-93 0 -164 -56zM1001 922q0 122 -88 210q-87 88 -210 89h-11q-117 -4 -201 -89q-86 -87 -86 -210q0 -125 86 -213q21 -20 41 -34q74 -52 171 -52q72 0 132 29q43 22 78 57q17 18 29 34
q59 78 59 179zM371 608q-122 -70 -146 -216v-392h958v382q-19 152 -126 215q-15 9 -34 19q-18 9 -34 16q-23 -20 -42 -34q-105 -75 -242 -75q-129 0 -230 66q-4 2 -15 10q-22 16 -41 33q-29 -13 -48 -24zM1232 450v-251h162v316q-17 136 -113 193q-26 15 -61 31
q-60 -54 -132 -79q15 -7 31 -17q95 -56 113 -193z" />
    <glyph glyph-name="cm_person" unicode="&#xf015;" 
d="M1595 -6q7 56 7 100q0 291 -188 403q-49 29 -100 50q-172 -158 -411 -158q-240 0 -415 158q-37 -15 -69 -35q-220 -126 -220 -418q1 -53 7 -100h1389zM900 1401q-179 -1 -307 -129q-126 -127 -126 -305q0 -180 126 -308q127 -125 307 -124q179 -1 304 124
q127 128 127 308q0 179 -127 305q-126 128 -304 129z" />
    <glyph glyph-name="cm_mobile" unicode="&#xf016;" 
d="M953 81q-21 -23 -53 -23q-30 0 -53 23q-21 20 -21 50q0 32 21 56q22 21 53 21q32 0 53 -21q23 -24 22 -56q1 -30 -22 -50zM1112 1248q67 0 67 -64v-854q0 -65 -67 -65h-431q-66 0 -65 65v854q-1 64 65 64h431zM1168 1502q0 17 -12 30q-14 14 -33 14h-1q-19 0 -34 -14
q-13 -12 -13 -30v-96h-392q-171 -1 -173 -163v-1079q2 -162 173 -162h430q171 0 170 162v1079q0 133 -115 156v103z" />
    <glyph glyph-name="cm_in" unicode="&#xf017;" 
d="M1654 348q-20 -24 -49 -24t-49 24q-20 22 -20 55q0 17 5 31q6 15 15 25q20 23 49 23q20 0 37 -12q5 -4 12 -11q19 -22 19 -56q0 -33 -19 -55zM1654 576q-21 -23 -49 -23t-49 23q-20 24 -20 56q0 17 5 30q-80 -15 -133 -76l-8 41q133 129 233 78q6 -3 9 -6q4 -4 12 -11
q19 -23 19 -56t-19 -56zM1739 1017h-1v385l-596 -256v-952l596 -195v78h1v940zM564 1087h457v-838h-457v272q141 22 210 -225l80 317q-89 215 -290 257v217zM504 879h-32v137l-433 -330l433 -331v128q19 12 32 18v-307h589v952h-589v-267z" />
    <glyph glyph-name="cm_out" unicode="&#xf018;" horiz-adv-x="1809" 
d="M1670 347q-20 -23 -49 -23t-48 23q-21 23 -21 56q0 17 5 31q6 15 16 25q19 23 48 23q21 0 38 -12q5 -4 11 -11q20 -23 20 -56t-20 -56zM1690 633q0 -33 -20 -56q-20 -24 -49 -24q-28 0 -48 24q-21 24 -21 56q0 16 5 30q-80 -15 -133 -76l-8 41q133 129 234 78l9 -6
q4 -3 11 -11q20 -23 20 -56zM1756 1019h-1v386l-598 -257v-955l598 -195v78h1v943zM577 842v247h458v-841h-458v166l281 214zM34 700q40 -98 105 -161q108 -105 281 -108v-137l97 74v-175h591v956h-591v-261l-97 74v-130q-189 -120 -281 118q-12 33 -23 70z" />
    <glyph glyph-name="cm_info" unicode="&#xf019;" 
d="M741 828l3 33h73q128 0 190 11l23 3l-120 -653q53 3 87 47l26 -20q-53 -63 -129 -63q-80 0 -124 40q-43 41 -43 106q0 18 27 186l56 310h-69zM1084 1131q0 -53 -37 -90q-37 -36 -87 -36q-53 0 -89 36q-38 37 -38 90q0 51 38 87q36 40 89 40q50 0 87 -40q37 -37 37 -87z
M828 1404q-243 -23 -424 -203q-206 -207 -206 -496t206 -496q207 -206 496 -206q290 0 496 206q207 207 207 496q0 288 -207 496q-180 180 -424 203q-40 3 -72 3q-33 0 -72 -3z" />
    <glyph glyph-name="cm_key" unicode="&#xf01a;" horiz-adv-x="1522" 
d="M1309 207q-64 -65 -153 -66q-90 -2 -151 60q-62 61 -60 151q1 90 65 155q65 64 154 65t151 -60q61 -62 60 -152q-1 -89 -66 -153zM202 1199l-202 -201l178 -178l44 43l-36 36l127 126l35 -35l32 32l478 -479q-56 -84 -58 -193q-3 -149 101 -253q103 -102 252 -100
q149 3 256 110t110 256t-100 252q-104 104 -253 101q-92 -2 -168 -44l-733 733q-128 -5 -134 -134z" />
    <glyph glyph-name="cm_location" unicode="&#xf01b;" 
d="M1018 1165q46 -46 46 -111q0 -67 -46 -111q-44 -45 -110 -45q-65 0 -111 45q-45 44 -45 111q0 65 45 111q45 45 111 45t110 -45zM1180 806q81 97 83 228q2 154 -105 262q-104 109 -255 112q-152 -3 -257 -112q-106 -109 -105 -262q3 -132 84 -228q11 -16 17 -24
q63 -65 104 -136q21 -31 37 -65q108 -239 120 -572v-7q13 344 119 579q16 35 37 65q42 72 104 136q11 15 17 24z" />
    <glyph glyph-name="cm_logout" unicode="&#xf01d;" 
d="M895 1404q-62 0 -104 -43q-43 -42 -43 -105v-361q0 -61 43 -104q42 -42 104 -43h4q62 1 104 43t43 104v361q-1 63 -43 105q-42 43 -104 43h-4zM1134 1003q38 -25 76 -63q130 -129 130 -311q0 -183 -130 -310q-130 -130 -311 -130q-182 0 -311 130q-129 127 -130 310
q1 182 130 311q32 34 74 62v211q-113 -45 -208 -140q-185 -185 -185 -444q0 -260 185 -445q185 -184 445 -185q259 1 444 185q185 185 185 445q0 259 -185 444q-96 95 -209 140v-210z" />
    <glyph glyph-name="cm_menu" unicode="&#xf01e;" horiz-adv-x="1099" 
d="M1099 1400h-410v-325h410v325zM689 -5h410v326h-410v-326zM689 535h410v325h-410v-325z" />
    <glyph glyph-name="cm_post" unicode="&#xf020;" 
d="M1601 698h-7l-1398 699v-498q70 -154 1204 -209q-1134 -45 -1204 -199v-499l1398 701q3 1 7 0l-4 2z" />
    <glyph glyph-name="cm_search" unicode="&#xf021;" horiz-adv-x="1425" 
d="M1084 895q1 -168 -119 -288q-120 -119 -288 -119t-287 119q-120 120 -120 288t120 288q119 120 287 119q168 1 288 -119t119 -288zM677 1409q-213 0 -362 -150q-150 -150 -150 -361q-1 -142 67 -256q32 -55 83 -106q149 -150 362 -151q157 1 279 82l297 -299l172 171
l-304 303q68 114 68 256q0 211 -150 361q-74 74 -163 110q-93 40 -199 40zM203 1175h-204v-1175h894v392q-99 -42 -214 -42q-228 0 -388 161q-161 161 -161 389q0 152 73 275z" />
    <glyph glyph-name="cm_settings" unicode="&#xf022;" 
d="M1205 1015q130 -132 130 -316q0 -186 -130 -316q-131 -132 -316 -132q-186 0 -317 132q-131 130 -131 316q0 184 131 316q131 131 317 131q185 0 316 -131zM982 1382q-108 24 -199 0l-26 -116q-47 -9 -99 -31l-86 82q-103 -38 -165 -110l47 -121q-38 -42 -65 -86l-124 18
q-61 -91 -71 -185l115 -76q-3 -34 -2 -58q-1 -25 2 -48l-104 -54q4 -110 51 -192l125 6q35 -60 86 -112l-48 -105q70 -85 158 -120l97 82q59 -23 119 -32l25 -110q107 -25 198 0l28 123q67 18 127 53l93 -75q100 48 155 124l-59 119q25 34 46 74l124 -10q55 96 57 190
l-117 66v21q0 31 -4 73l103 66q-14 110 -68 187l-119 -17q-30 46 -66 84l49 109q-73 84 -160 118l-93 -82q-50 22 -106 32zM667 920q-92 -91 -92 -221t92 -222q92 -91 222 -91q129 0 221 91q92 92 92 222t-92 221q-92 92 -221 92q-130 0 -222 -92z" />
    <glyph glyph-name="cm_smile_negative" unicode="&#xf023;" 
d="M1375 1164q193 -193 193 -466q0 -274 -193 -467q-192 -193 -466 -193q-273 0 -466 193t-193 467q0 273 193 466t466 193q274 0 466 -193zM909 1392q-289 0 -491 -203q-203 -202 -203 -491q0 -288 203 -491t491 -203q287 0 491 203q203 203 203 491t-203 491t-491 203z
M694 1025q-51 0 -88 -53q-37 -54 -36 -129q-1 -73 36 -128q36 -53 88 -53t88 53t36 128q0 76 -36 129q-37 53 -88 53zM1046 972q-37 -55 -36 -129q-1 -73 36 -128q36 -53 88 -53q51 0 88 53q36 54 36 128q0 76 -36 129q-37 53 -88 53t-88 -53zM415 556q465 -176 989 0
q-14 -90 -83 -167q-426 -135 -823 0q-69 78 -83 167zM516 305q163 -163 393 -163q231 0 393 163q128 129 155 299q-594 -196 -1096 0q27 -171 155 -299z" />
    <glyph glyph-name="cm_smile_positive" unicode="&#xf024;" 
d="M325 604q529 -207 1153 0q-29 -179 -163 -315q-171 -171 -413 -171q-243 0 -414 171q-135 136 -163 315zM768 991q38 -56 37 -135q1 -79 -37 -135q-39 -57 -94 -56q-53 -1 -91 56q-40 57 -40 135t40 135q38 56 91 56q55 0 94 -56zM1138 1047q53 0 92 -56q39 -57 39 -135
q0 -79 -39 -135q-39 -57 -92 -56q-55 -1 -94 56q-38 56 -38 135q0 78 38 135q40 56 94 56zM1392 1194q-203 202 -490 202q-288 0 -491 -202q-203 -204 -204 -491q1 -289 204 -492q203 -202 491 -202q287 0 490 202q203 203 203 492q0 287 -203 491zM470 377q416 -143 865 0
q71 80 87 176q-552 -185 -1041 0q17 -95 89 -176z" />
    <glyph glyph-name="cm_write" unicode="&#xf025;" 
d="M1063 1258q-167 -155 -259 -347q-94 -192 -109 -335q-13 -144 -14 -291q125 539 519 1114q1 2 3 4q2 3 4 5q-3 -2 -7 -7q-95 -103 -137 -143zM593 35q-2 -4 -3 -10q0 -5 1 -8q3 -4 5 -5q4 -3 10 -5q8 -2 17 0q11 1 24 5q10 2 16 5q9 3 12 5q7 2 13 5q10 6 19 11
q28 15 33 18l25 17q15 10 31 25l27 27q13 15 23 28l12 15q8 11 12 17q11 15 26 31q7 8 21 19q33 25 64 44v2q-16 -4 -30 -10q-18 -8 -30 -16q-10 -6 -27 -19q-4 -2 -17 -13q-5 -5 -15 -14q-14 -15 -24 -29q-1 -2 -21 -27q-10 -13 -22 -24q-8 -8 -23 -22q-11 -10 -27 -21
q-19 -12 -31 -18q-19 -10 -37 -18q-9 -5 -23 -5q-3 0 -6 1q-8 1 -8 9l1 12q-21 -11 -35 -20q-5 -2 -9 -7q-3 -3 -4 -5zM1121 1125q10 108 31 156q-310 -478 -470 -1055l-40 -141q64 25 98 147l31 103q-2 -3 3 4q86 37 193 177q106 137 125 319q23 223 29 290z" />
    <glyph glyph-name="cm_addressbook_positive" unicode="&#xf026;" 
d="M1154 0v1035h-707v-198v0q36 0 60 -29q25 -29 25 -70t-25 -71q-25 -29 -60 -28v0v-40v0q35 0 60 -29q25 -30 25 -71t-25 -71q-25 -28 -60 -28v0v-35v0q35 0 60 -29t25 -71q0 -41 -25 -71q-25 -28 -60 -28v0v-166h707zM437 679q27 0 46 18q21 17 21 41v0q0 25 -21 43
q-19 18 -46 18h-71q-28 0 -48 -18q-19 -18 -18 -43v0q-1 -24 18 -41q20 -18 48 -18h71zM366 554q-28 0 -48 -16q-19 -18 -18 -43v-1q-1 -24 18 -42q20 -16 48 -16h71q28 0 46 16q21 18 21 42v1q0 25 -21 43q-18 16 -46 16h-71zM504 266q0 24 -21 42q-19 18 -46 18h-71
q-28 0 -48 -18q-19 -18 -18 -42v-1q-1 -24 18 -41q20 -18 48 -17h71q27 -1 46 17q21 17 21 41v1z" />
    <glyph glyph-name="cm_load_to_rhino" unicode="&#xf027;" 
d="M415 737q-1 -25 14 -41q18 -18 42 -17h62q22 -1 38 17q18 15 18 41q0 25 -18 43q-16 16 -38 16h-62q-24 0 -42 -16q-15 -18 -14 -43zM533 552h-62q-24 0 -42 -17q-15 -17 -14 -42v0q-1 -25 14 -42q18 -17 42 -16h62q22 -1 38 16q18 17 18 42v0q0 25 -18 42q-16 17 -38 17
zM471 325q-24 -1 -42 -18q-15 -18 -14 -41v-1q-1 -26 14 -43q18 -17 42 -15h62q22 -2 38 15q18 16 18 43v1q0 23 -18 41q-15 17 -38 18h-62zM853 939q19 -63 4 -98l-155 78l103 -281l342 105l-165 53q44 76 58 143h122v-829h-485v829h176zM1260 1036h-216q-15 100 -117 175
l-375 197q185 -228 261 -372h-272v-200q36 0 59 -28q26 -28 27 -70q-1 -42 -27 -70q-24 -30 -59 -29v-40q35 0 59 -29q26 -29 27 -71q-1 -41 -27 -71q-24 -29 -59 -29v-33q36 -1 59 -30q26 -30 27 -71q-1 -41 -27 -70q-23 -29 -59 -29v-166h719v1036zM913 345q3 -5 2 -13
q-2 -7 -7 -11q-6 -3 -14 -3q-6 2 -10 7q-4 6 -3 14q1 7 8 11q5 3 12 2t12 -7zM793 499q5 -12 -2 -25q-5 -10 -13 -24q-6 -11 -13 -11q-6 0 -15 11q-7 11 -4 27q3 13 23 22q21 10 21 11q0 -1 3 -11zM1073 403q-40 -38 -63 -41h-21q1 4 7 15q14 26 10 55q-3 12 -24 -7
q-20 -19 -42 -23q-6 -3 -13 -3v2l-1 1q-19 19 -36 32q11 12 14 22q5 11 4 27q0 17 -3 21q1 -4 -11 -12q-14 -11 -37 -24q-10 -5 -15 -10q-25 7 -48 0l2 3q13 22 3 43q-7 17 -8 21q0 -2 -29 -16q-29 -13 -40 -39q-12 -26 -3 -48q5 -9 9 -13q-15 -19 -18 -45q-11 -58 40 -99
q52 -41 118 -65q61 -22 110 5q-11 8 -22 18q-1 2 -4 5l-4 4q18 -17 41 -21q19 -4 37 0q50 31 61 81q-9 -1 -17 0q-18 3 -30 17q-8 11 -11 21q3 -5 7 -10q15 -17 37 -18q8 -1 16 1q17 14 28 29q28 42 24 95q-4 51 -35 86q1 -6 2 -19q4 -54 -35 -91z" />
    <glyph glyph-name="cm_checkbox" unicode="&#xf028;" 
d="M1214 863q129 -129 129 -313q0 -183 -129 -311q-128 -129 -311 -129q-184 0 -313 129q-128 129 -128 311q0 183 128 313q129 128 313 128q183 0 311 -128zM900 1101q-229 0 -389 -161q-161 -160 -161 -390q0 -229 161 -389q160 -161 389 -161q230 0 391 161
q161 160 161 389t-161 390t-391 161z" />
    <glyph glyph-name="cm_checker" unicode="&#xf029;" 
d="M789 166q515 740 984 1075l-312 127q-312 -307 -676 -903l-537 425l-52 -264q370 -153 575 -436z" />
    <glyph glyph-name="cm_checkbox_wrong" unicode="&#xf02a;" 
d="M903 987q180 3 311 -127q127 -127 127 -312q0 -184 -127 -311q-126 -126 -311 -129q-186 3 -311 129q-130 129 -130 311t130 312t311 127zM511 159q159 -159 389 -159q228 0 390 159q159 163 159 389q0 228 -159 388q-161 161 -390 161q-231 0 -389 -161
q-163 -160 -160 -388q-3 -226 160 -389zM1226 814l-65 64l-261 -260l-260 258l-65 -65l261 -260l-263 -261l67 -65l260 261l263 -263l65 67l-263 261z" />
    <glyph glyph-name="cm_bell" unicode="&#xf02b;" 
d="M830 1334v-70q-24 -2 -63 -9q-73 -27 -132 -84q-87 -84 -102 -199q0 -3 -1 -11q-1 -133 -1 -200q-2 -213 -215 -431h1168q-237 219 -237 431q-2 203 -2 200v11q-16 115 -103 199q-57 57 -129 84q-25 6 -51 9v70q0 27 -19 46q-18 20 -45 20h-2q-27 0 -46 -20
q-20 -19 -20 -46zM746 288q9 -49 47 -87q50 -48 119 -48t119 48q38 37 47 87h-332z" />
    <glyph glyph-name="cm_bell_ring" unicode="&#xf02c;" 
d="M828 1263q-11 -1 -32 -4t-31 -4q-76 -27 -133 -85q-91 -88 -104 -201v-12q-3 -64 -3 -200q0 -216 -215 -435h1179q-240 219 -240 435q-4 67 -4 200v12q-13 117 -101 201q-60 60 -130 85q-19 2 -53 8v71q0 27 -18 48q-19 19 -47 19q-30 0 -48 -19q-20 -20 -20 -48v-71z
M731 280q7 -47 48 -89q49 -48 119 -48t121 48q38 38 46 89h-334zM1391 -158q-209 -201 -500 -201q-285 0 -485 187l-26 -26q213 -202 512 -202q312 2 528 214zM1314 -79q-173 -170 -422 -170q-237 -2 -407 156l-28 -29q181 -164 434 -164q264 0 450 180zM1219 14
q-135 -130 -325 -130q-181 0 -313 118l-31 -32q143 -127 342 -127q209 -2 357 141z" />
    <glyph glyph-name="cm_camera" unicode="&#xf02d;" 
d="M1156 698q101 -101 101 -245q0 -143 -101 -245q-102 -102 -246 -102t-245 102q-103 102 -102 245q-1 143 102 245q101 102 245 103q144 -1 246 -103zM1599 789q0 125 -125 125h-274l-97 238h-364l-108 -238h-309q-125 0 -125 -125v-664q0 -125 125 -125h1152
q125 0 125 125v664z" />
    <glyph glyph-name="cm_pictures" unicode="&#xf02e;" 
d="M813 991q-61 62 -148 62t-148 -62q-30 -29 -45 -66q-13 -30 -15 -65q-1 -11 -1 -16q0 -17 2 -33q1 -7 4 -16q9 -45 40 -82q6 -8 15 -17q24 -24 50 -38l67 108l87 -125q51 14 92 55q9 9 16 17q30 37 40 82q2 9 3 16q3 16 3 33q-1 3 -1 8v8q-3 35 -15 65q-17 38 -46 66z
M1164 883l-301 -514l-229 331l-434 -700h1394z" />
    <glyph glyph-name="cm_nose_left" unicode="&#xf030;" horiz-adv-x="528" 
d="M528 1418q-57 -935 -528 -1030q78 -285 528 -387v1417z" />
    <glyph glyph-name="cm_nose_right" unicode="&#xf031;" horiz-adv-x="524" 
d="M0 1398v-1407q57 929 524 1023q-78 282 -524 384z" />
    <glyph glyph-name="cm_nose_down" unicode="&#xf032;" horiz-adv-x="1404" 
d="M2 1407q925 -57 1019 -522q281 78 383 522h-1402z" />
    <glyph glyph-name="cm_nose_up" unicode="&#xf033;" horiz-adv-x="1399" 
d="M0 -400h1399q-101 444 -382 522q-94 -465 -1017 -522z" />
    <glyph glyph-name="cm_scroll_pane" unicode="&#xf034;" 
d="M1299 689v14h501l-505 489h-975q-70 1 -70 -70v-852q0 -70 70 -70h975l505 489h-501z" />
    <glyph glyph-name="cm_contacts" unicode="&#xf035;" 
d="M1781 322v530h-387v-94h-274v354q-1 39 -11 67q-5 23 -13 29h-4q-12 6 -24 6q-66 0 -113 -177q-14 -56 -24 -129q-21 -135 -22 -301q0 -250 46 -429q47 -178 113 -178q12 -1 24 6q2 0 4 2q8 3 13 28q9 27 11 71v307h274v-92h387zM832 1037q-47 177 -112 177q-12 0 -23 -6
h-4q-10 -6 -16 -29q-8 -26 -8 -67v-354h-273v94h-390v-530h390v92h273v-307q1 -43 8 -71q6 -25 16 -28q1 -1 4 -2q11 -7 23 -6q65 0 112 178q45 176 45 429q0 165 -19 301q-11 74 -26 129z" />
    <glyph glyph-name="cm_arrange" unicode="&#xf036;" 
d="M960 536h-960v-189h960v189zM0 2h960v189h-960v-189zM0 850v-189h951q364 -187 335 -401h-290l363 -341l433 412l-285 -47q32 471 -343 566h-703v0h-461z" />
    <glyph glyph-name="cm_filter" unicode="&#xf037;" horiz-adv-x="1901" 
d="M1638 842q-15 -96 -93 -151q-79 -59 -174 -41q-93 20 -127 111q-31 88 -2 174l135 139q17 9 49 6q99 6 164 -70q63 -71 48 -168zM1748 951q-21 92 -89 154q-68 61 -140 79q-73 16 -143 16h-1241l569 -568v-628l243 226v410l141 142q25 -54 65 -106q55 -73 142 -110
q87 -40 182 -21q92 15 165 77q69 61 97 149q28 91 9 180z" />
    <glyph glyph-name="cm_post_attention" unicode="&#xf038;" 
d="M1158 814q50 -45 50 -116q0 -66 -50 -112q-47 -48 -117 -48t-117 48q-45 44 -45 112q0 73 45 116q46 43 117 43t117 -43zM840 770q-30 -72 0 -148l-642 -151v-474l1390 698h3l2 3h-5l-1390 694v-471z" />
    <glyph glyph-name="cm_load_to" unicode="&#xf039;" 
d="M564 736q25 -1 42 18q19 17 20 45q-1 27 -20 46q-17 18 -42 18h-67q-27 0 -45 -18q-17 -19 -17 -46q0 -28 17 -45q19 -19 45 -18h67zM626 535q-1 27 -20 46q-17 17 -42 17h-67q-27 0 -45 -17q-17 -19 -17 -46v-1q0 -27 17 -44q18 -19 45 -19h67q25 0 42 19q19 17 20 44v1
zM497 352q-27 -1 -45 -20q-17 -18 -17 -44v-1q0 -28 17 -47q18 -18 45 -17h67q25 -1 42 17q19 19 20 47v1q-1 26 -20 44q-17 19 -42 20h-67zM1247 1018v-324l-158 50q91 154 44 274h114zM897 1018q86 -156 57 -225l-168 85l112 -305l349 107v-561h-527v899h177zM1350 1121
h-247l-35 71l-444 213q129 -159 211 -284h-262v-215q38 0 64 -31q28 -32 29 -76q-1 -45 -29 -76q-26 -32 -64 -32v-43q38 0 64 -31q28 -32 29 -77q-1 -45 -29 -76q-26 -32 -64 -32v-37q38 0 64 -32q28 -32 29 -76q-1 -44 -29 -76q-26 -32 -64 -32v-179h777v1121z" />
    <glyph glyph-name="cm_insert_to" unicode="&#xf03a;" 
d="M1382 1299q47 0 80 -32q32 -33 32 -78q0 -47 -32 -79q-33 -33 -80 -33q-45 0 -77 33q-32 32 -32 79q0 46 32 78q31 32 77 32zM1540 1344q-66 65 -158 64q-92 0 -153 -64h-2q-64 -63 -64 -155q0 -38 9 -70l-30 -35l-180 178q-11 11 -25 11q-15 0 -25 -11l-48 -50
q-11 -10 -11 -25q0 -16 11 -25l176 -176l-489 -489q-25 47 -38 94q-21 64 -21 135q-1 41 2 73l73 -23q15 -4 28 3q13 5 18 18q6 13 0 27l-133 290q-3 10 -13 16q-13 6 -25 5q-13 -2 -21 -10l-207 -210q-11 -9 -12 -23q0 -14 9 -25t23 -13l75 -9q-10 -57 -11 -117v-2
q-4 -135 50 -256q47 -100 132 -189q90 -86 195 -133q116 -50 251 -50q64 0 121 7l6 -71q2 -15 14 -25q10 -9 23 -9q15 1 25 11l213 210q8 10 11 21q1 14 -5 25q-6 10 -18 14l-292 132q-14 6 -27 0q-13 -4 -19 -18q-7 -13 -2 -27l25 -76q-28 -1 -77 -5q-71 4 -135 21h2
q-50 18 -96 48l486 486l176 -173q10 -12 25 -12t25 12l53 46q11 11 11 27q0 14 -11 25l-181 178l35 32q34 -10 68 -9q92 0 158 66v-2q66 62 66 155q0 96 -66 157z" />
    <glyph glyph-name="cm_attention" unicode="&#xf03b;" 
d="M901 510q63 0 100 -41q38 -41 38 -104q0 -60 -38 -101q-37 -41 -100 -41q-61 0 -101 41q-38 41 -38 101q0 63 38 104q40 41 101 41zM781 1170h239l-41 -593h-154zM826 1402q-245 -23 -425 -203q-207 -207 -207 -496q0 -290 207 -497q206 -206 496 -206t497 206
q206 207 206 497q0 289 -206 496q-180 180 -425 203q-37 4 -72 4q-34 0 -71 -4z" />
    <glyph glyph-name="cm_video" unicode="&#xf03c;" 
d="M900 604q94 0 160 -66q65 -66 65 -159t-65 -159q-66 -66 -160 -66q-93 0 -159 66q-65 66 -65 159t65 159q66 66 159 66zM682 880l-133 -144h-189l134 144h188zM662 987l-175 -72l-177 83l174 71zM1111 736l133 144h189l-134 -144h-188zM1007 1128l-175 -71l-178 82
l175 72zM1055 880l-133 -144h-189l134 144h188zM1356 1271l-175 -71l-177 83l174 71zM489 898l991 406l-221 103l-1028 -421l1 -794q4 -184 156 -192h971q210 -1 210 192v706h-1080zM1069 376l-256 129v-257z" />
    <glyph glyph-name="cm_file" unicode="&#xf03d;" 
d="M1405 1028q-47 87 -180 87h-598v116q0 71 -72 71h-193q-71 0 -71 -71v-119q-11 -1 -17 -3q-141 -28 -141 -198v-811h2l191 742q42 179 199 186h880zM1663 801q49 187 -155 187h-942q-150 -9 -200 -187l-181 -701h1297z" />
    <glyph glyph-name="cm_grid" unicode="&#xf03e;" 
d="M1612 1405h-409v-405h409v405zM1612 405h-409v-405h409v405zM1612 905h-409v-403h409v403zM1106 1405h-410v-405h410v405zM599 1405h-409v-405h409v405zM599 905h-409v-403h409v403zM599 405h-409v-405h409v405zM696 0h410v405h-410v-405zM1106 905h-410v-403h410v403z
" />
    <glyph glyph-name="cm_grip" unicode="&#xf040;" 
d="M1725 1053q-60 60 -149 60t-153 -60q-60 -64 -60 -153q0 -92 60 -154q63 -62 153 -61q89 -1 149 61q62 62 62 154q0 90 -62 153zM1730 369q-60 60 -150 60q-89 0 -151 -60q-61 -65 -62 -156q1 -90 62 -151q62 -62 151 -62q90 0 150 62q62 61 61 151q1 91 -61 156z
M896 685q90 -1 149 61q64 62 64 154q0 90 -64 153q-59 60 -149 60q-89 0 -153 -60q-60 -64 -60 -153q0 -91 60 -154q64 -62 153 -61zM0 900q-1 -91 59 -154q64 -62 154 -61q89 -1 149 61q63 62 64 154q-1 90 -64 153q-61 60 -149 60q-90 0 -154 -60q-60 -64 -59 -153z
M362 369q-60 60 -149 60q-91 0 -154 -60q-60 -64 -59 -156q-1 -90 59 -151q64 -62 154 -62q89 0 149 62q63 61 64 151q-1 92 -64 156zM745 369q-60 -64 -60 -156q0 -91 60 -151q63 -62 153 -62t150 62q63 61 64 151q-1 92 -64 156q-60 60 -150 60t-153 -60z" />
    <glyph glyph-name="cm_plus" unicode="&#xf041;" 
d="M1606 658v88h-659v659h-90v-659h-657v-88h657v-658h90v658h659z" />
    <glyph glyph-name="cm_speaker" unicode="&#xf042;" 
d="M1315 1262q227 -234 229 -565q-2 -318 -212 -548l29 -30q226 243 227 580q-1 347 -241 595zM1121 1069q146 -154 147 -369q-1 -204 -132 -355l34 -34q144 165 145 388q-1 234 -161 403zM1226 1174q191 -199 193 -475q-1 -267 -176 -461l31 -31q187 206 188 490
q-2 296 -206 507zM605 974h-393v-542h393l433 -432v1407z" />
    <glyph glyph-name="cm_close" unicode="&#xf043;" horiz-adv-x="1400" 
d="M1146 1146q184 -185 184 -447q0 -261 -184 -446q-184 -184 -446 -184q-261 0 -446 184q-184 185 -184 446q0 263 184 447q185 183 446 183q262 0 446 -183zM700 1400q-291 0 -495 -205q-205 -205 -205 -495q0 -291 205 -496q204 -205 495 -204q291 -1 496 204
q204 204 204 496q0 291 -204 495q-205 205 -496 205zM1121 1071l-50 50l-371 -371l-372 371l-49 -50l371 -371l-371 -371l49 -50l372 372l371 -372l50 50l-372 371z" />
    <glyph glyph-name="cm_rhino_bubble" unicode="&#xf044;" horiz-adv-x="1838" 
d="M1371 807q11 -83 -30 -158q-3 -7 -11 -22q-7 -13 -11 -19q33 -3 60 0q66 7 179 115q112 106 99 259q-2 31 -7 54q90 -98 101 -243q13 -152 -67 -267q-31 -44 -77 -85q-21 -5 -46 -3q-64 5 -107 54q-10 11 -19 27q8 -31 31 -59q36 -40 85 -48q25 -4 47 2
q-30 -145 -171 -230q-49 -15 -105 -3q-65 14 -113 58l20 -20q33 -33 62 -53q-138 -76 -311 -13q-187 68 -332 181q-145 114 -114 280q12 71 52 127q-12 14 -22 37q-26 61 4 136q31 74 115 111q78 36 81 43q1 -5 24 -55q26 -62 -10 -126q-2 -5 -4 -7q65 20 136 0q11 14 37 28
q72 39 111 67q31 23 30 32q5 -9 7 -54q2 -47 -10 -78q-12 -32 -43 -64q51 -38 102 -90l3 -3l3 -3q14 1 36 6q60 13 118 66t67 20zM1286 1402q-132 21 -266 -7q-122 -25 -235 -84q-97 -49 -181 -109q-72 -50 -159 -109q-84 -53 -172 -101q-57 -28 -123 -55q-73 -29 -149 -42
q163 5 276 -67q6 -4 15 -11q82 -64 114 -165q45 -143 101 -276q58 -137 176 -226q112 -88 249 -124q93 -25 193 -24q296 1 505 212q208 210 208 506q-1 141 -49 262q-2 6 -7 17t-7 16q-55 121 -150 216q-99 100 -234 146q-55 18 -105 25zM701 998q-57 -27 -65 -67
q-8 -41 15 -72q21 -32 39 -32q17 1 37 32q18 29 37 67q18 37 6 71q-3 11 -7 21q-3 10 -3 9q-1 -4 -59 -29zM1038 574q-17 -12 -20 -32q-4 -21 8 -37q11 -16 31 -20q20 -3 37 8q18 12 21 31q4 20 -8 37t-32 20q-19 4 -37 -7z" />
    <glyph glyph-name="cm_logo" unicode="&#xf045;" horiz-adv-x="9679" 
d="M6862 759q0 134 89 232q93 91 223 91q132 0 223 -91q91 -98 91 -232v-162q0 -136 -91 -229t-223 -93q-130 0 -223 93q-89 93 -89 229v162zM7427 1389q-308 8 -489 -51q-189 -54 -314 -211q-37 -50 -63 -91q-16 -27 -38 -79q0 -5 -4 -14q-3 -13 -5 -17q-37 -103 -42 -234
q-3 -297 196 -503q140 -143 317 -194q69 -17 125 -19q17 -3 51 -3h50q66 3 125 14q181 47 321 182q209 206 217 498q0 121 -35 237q0 5 -7 26q-37 94 -33 79q-14 62 -19 101q-24 112 71 272q-208 2 -424 7zM6045 815h-621q17 100 88 176q88 91 221 91q132 0 221 -91
q69 -73 91 -176zM6266 1141q-187 239 -533 239q-300 0 -504 -200q-122 -115 -173 -271q-35 -109 -35 -225q0 -132 35 -249q47 -165 167 -270q193 -184 519 -184q242 0 413 103q77 46 128 107q81 94 120 226h-408q-2 -4 -41 -49q-89 -93 -221 -93q-133 0 -221 93
q-83 81 -91 204h1004q15 334 -142 547q-10 16 -17 22zM4100 1166q-93 214 -387 214q-248 0 -379 -222h-7q-172 180 -417 180v-1318h434v641q0 198 52 282q49 78 169 78q162 0 162 -253v-748h435v645q0 189 32 258q42 98 169 98q185 0 185 -226v-775h431v787q0 251 -79 379
q-107 194 -387 194q-251 0 -413 -214zM2461 597q0 -136 -91 -229t-224 -93q-132 0 -220 93q-92 93 -92 229v162q0 134 92 232q88 91 220 91q133 0 224 -91q91 -98 91 -232v-162zM2372 1345q-106 37 -235 37q-297 2 -501 -204q-142 -142 -189 -319q-17 -59 -20 -113v-125
q5 -54 20 -113q49 -184 189 -319q201 -202 501 -206q135 4 235 39q84 27 106 40q47 17 95 24q111 22 278 -66v422q5 295 -59 484q-61 191 -219 312q-63 46 -93 63q-58 35 -108 44zM208 1178q-209 -208 -209 -494q0 -287 209 -495q206 -204 500 -204q300 0 504 204
q87 83 142 189q2 10 9 27q10 17 13 25h-406q-6 -13 -48 -62q-89 -93 -219 -93q-135 0 -223 93q-93 93 -93 229v162q0 134 93 232q88 91 223 91q130 0 219 -91q73 -78 88 -176h400q-25 111 -56 175q-55 107 -142 188q-204 204 -504 204q-294 0 -500 -204zM9658 1342v50h-493
v-50h220v-647h55v647h218zM9093 1342v50h-383v-697h396v47h-344v301h280v47h-280v252h331zM8519 1392h-54v-449q0 -17 3 -50v-46q2 -24 2 -64l-364 609h-51v-697h51v543q-1 23 -1 63l360 -606h54v697z" />
    <glyph glyph-name="cmlogoc" unicode="&#xf046;" horiz-adv-x="1463" 
d="M208 1178q-209 -208 -209 -494q0 -287 209 -495q206 -204 500 -204q300 0 504 204q87 83 142 189q2 10 9 27q10 17 13 25h-406q-6 -13 -48 -62q-89 -93 -219 -93q-135 0 -223 93q-93 93 -93 229v162q0 134 93 232q88 91 223 91q130 0 219 -91q73 -78 88 -176h400
q-25 111 -56 175q-55 107 -142 188q-204 204 -504 204q-294 0 -500 -204z" />
    <glyph glyph-name="cmlogoa" unicode="&#xf047;" horiz-adv-x="1463" 
d="M1034 615q0 -136 -91 -229t-224 -93q-132 0 -220 93q-92 93 -92 229v162q0 134 92 232q88 91 220 91q133 0 224 -91q91 -98 91 -232v-162zM945 1363q-106 37 -235 37q-297 2 -501 -204q-142 -142 -189 -319q-17 -59 -20 -113v-125q5 -54 20 -113q49 -184 189 -319
q201 -202 501 -206q135 4 235 39q84 27 106 40q47 17 95 24q111 22 278 -66v422q5 295 -59 484q-61 191 -219 312q-63 46 -93 63q-58 35 -108 44z" />
    <glyph glyph-name="cmlogom" unicode="&#xf048;" horiz-adv-x="2100" 
d="M1190 1186q-93 214 -387 214q-248 0 -379 -222h-7q-172 180 -417 180v-1318h434v641q0 198 52 282q49 78 169 78q162 0 162 -253v-748h435v645q0 189 32 258q42 98 169 98q185 0 185 -226v-775h431v787q0 251 -79 379q-107 194 -387 194q-251 0 -413 -214z" />
    <glyph glyph-name="cmlogoe" unicode="&#xf049;" horiz-adv-x="1432" 
d="M1024 842h-621q17 100 88 176q88 91 221 91q132 0 221 -91q69 -73 91 -176zM1245 1168q-187 239 -533 239q-300 0 -504 -200q-122 -115 -173 -271q-35 -109 -35 -225q0 -132 35 -249q47 -165 167 -270q193 -184 519 -184q242 0 413 103q77 46 128 107q81 94 120 226h-408
q-2 -4 -41 -49q-89 -93 -221 -93q-133 0 -221 93q-83 81 -91 204h1004q15 334 -142 547q-10 16 -17 22z" />
    <glyph glyph-name="cmlogoo" unicode="&#xf04a;" horiz-adv-x="1437" 
d="M390 786q0 134 89 232q93 91 223 91q132 0 223 -91q91 -98 91 -232v-162q0 -136 -91 -229t-223 -93q-130 0 -223 93q-89 93 -89 229v162zM955 1416q-308 8 -489 -51q-189 -54 -314 -211q-37 -50 -63 -91q-16 -27 -38 -79q0 -5 -4 -14q-3 -13 -5 -17q-37 -103 -42 -234
q-3 -297 196 -503q140 -143 317 -194q69 -17 125 -19q17 -3 51 -3h50q66 3 125 14q181 47 321 182q209 206 217 498q0 121 -35 237q0 5 -7 26q-37 94 -33 79q-14 62 -19 101q-24 112 71 272q-208 2 -424 7z" />
    <glyph glyph-name="cmlogonet" unicode="&#xf04b;" horiz-adv-x="1600" 
d="M1602 1369v50h-493v-50h220v-647h55v647h218zM1037 1369v50h-383v-697h396v47h-344v301h280v47h-280v252h331zM463 1419h-54v-449q0 -17 3 -50v-46q2 -24 2 -64l-364 609h-51v-697h51v543q-1 23 -1 63l360 -606h54v697z" />
    <glyph glyph-name="_1" unicode="&#xf04c;" horiz-adv-x="0" 
 />
  </font>
</defs>
</svg>
