<?xml version="1.0" standalone="no"?>
<!DOCTYPE svg PUBLIC "-//W3C//DTD SVG 1.1//EN" "http://www.w3.org/Graphics/SVG/1.1/DTD/svg11.dtd" >
<svg xmlns="http://www.w3.org/2000/svg" xmlns:xlink="http://www.w3.org/1999/xlink" version="1.1">
<metadata></metadata>
<defs>
<font id="cameofontregular" horiz-adv-x="2048" >
<font-face units-per-em="2048" ascent="1755" descent="-293" />
<missing-glyph horiz-adv-x="500" />
<glyph unicode="&#x25fc;" horiz-adv-x="571" d="M0 0v0v0v0v0z" />
<glyph unicode="&#xf002;" horiz-adv-x="2085" d="M896 765q21 14 45 9q26 -5 40 -28q15 -21 10 -47q-5 -24 -26 -38q-21 -15 -46 -11q-24 5 -40 27q-14 22 -9 45q4 27 26 43zM551 1207q-26 -49 -49 -85q-23 -39 -45 -40q-23 -1 -50 40q-30 40 -18 92q9 49 82 82q73 34 75 38q0 -2 12 -39q15 -42 -7 -88zM781 1185 q-34 -19 -48 -36q-87 25 -170 0q0 1 3 4q1 3 2 5q45 81 13 156q-29 65 -30 71q-5 -7 -104 -52q-106 -49 -144 -142q-39 -93 -5 -169q13 -29 27 -48q-49 -71 -64 -159q-39 -211 144 -353q182 -143 416 -229q218 -79 390 16q-37 26 -76 68q-14 13 -25 26q58 -56 141 -76 q70 -14 132 4q179 110 215 292q-23 -8 -56 -3q-62 9 -108 59q-31 37 -39 75q7 -14 23 -33q56 -62 137 -69q31 -3 55 3q56 48 99 108q101 145 83 337q-16 183 -127 306q6 -33 8 -68q17 -192 -124 -327q-142 -136 -224 -145q-34 -5 -77 0q25 47 29 52q51 95 37 198 q-11 41 -84 -25q-74 -66 -149 -84q-25 -7 -46 -6q1 -3 -8 9q-67 67 -129 112q40 41 55 81q15 38 14 97q-3 57 -9 66q0 -10 -39 -40q-53 -36 -138 -81z" />
<glyph unicode="&#xf003;" horiz-adv-x="1414" d="M701 1095l389 -128l179 457l-198 -134q-147 384 -489 293l-529 -236q776 11 864 -152zM662 506q14 -18 10 -42q-3 -23 -23 -37q-19 -13 -43 -8q-22 3 -36 22q-13 21 -8 44q3 23 22 36q18 11 42 8q23 -4 36 -23zM123 929q10 46 78 76q64 30 65 34q0 -1 13 -34 q13 -39 -7 -82q-19 -38 -43 -76q-23 -35 -43 -36q-19 0 -45 36q-27 36 -18 82zM649 953q-2 51 -8 63q1 -9 -35 -35q-40 -31 -125 -77q-27 -15 -43 -33q-81 23 -155 0q2 5 4 9q41 72 10 142q-23 55 -25 64q-3 -7 -94 -48q-96 -45 -131 -131q-35 -83 -6 -154q11 -26 24 -41 q-43 -65 -59 -144q-33 -192 132 -322q166 -129 381 -207q198 -71 356 16q-37 24 -70 58l-26 25q55 -51 132 -67q62 -14 119 3q163 98 195 262q-24 -7 -54 -1q-56 9 -97 55q-26 30 -35 66q8 -14 23 -31q48 -55 122 -59q25 -3 51 2q54 47 90 98q90 131 76 305 q-14 167 -116 279q6 -29 8 -63q16 -174 -112 -296q-130 -123 -205 -131q-32 -3 -69 0q31 56 26 47q46 86 33 180q-10 38 -76 -22q-67 -61 -136 -76q-23 -6 -42 -7q-3 3 -6 7q-59 62 -117 104q34 35 49 72q13 38 11 88z" />
<glyph unicode="&#xf004;" horiz-adv-x="1609" d="M1374 1337q75 -89 65 -207q-10 -119 -101 -193q-90 -75 -208 -65q-117 10 -193 99q-75 91 -65 208q10 118 101 194q90 75 208 65q116 -11 193 -101zM1186 1509q-147 14 -259 -82q-113 -95 -126 -241q-13 -147 82 -259q94 -113 240 -126q147 -13 260 81q113 95 126 243 q13 147 -82 259t-241 125zM1181 1374q0 10 -7 17t-17 8q-10 -1 -16 -8q-8 -7 -8 -17v-195h-195q-10 0 -17 -8q-7 -7 -7 -16q0 -10 7 -17t17 -8h195v-194q0 -10 8 -17q6 -8 16 -8t17 8q7 7 7 17v194h194q10 1 17 8t7 17q0 9 -7 16q-7 8 -17 8h-194v195z" />
<glyph unicode="&#xf005;" horiz-adv-x="1609" d="M1600 11l9 -8v1604h-1603l1594 -1600v4z" />
<glyph unicode="&#xf006;" d="M768 1286h560v-953h-560v953zM613 1166q41 0 68 -32q30 -33 30 -80q0 -48 -30 -83q-29 -33 -68 -33v-44q41 0 68 -33q30 -33 30 -82q0 -48 -30 -81q-27 -34 -68 -34v-39q40 -1 68 -34q30 -33 30 -81t-30 -80q-27 -33 -68 -35v-189h825v1188h-825v-228zM823 1109h448v108 h-448v-108zM823 888h448v109h-448v-109zM467 1054q-1 -30 18 -49t48 -19h69q27 -1 46 19q19 19 21 49q-1 29 -21 48q-18 19 -46 20h-69q-29 -1 -48 -20q-19 -21 -18 -48zM533 841q-27 0 -48 -19q-18 -21 -18 -48v-1q-1 -29 18 -48t48 -20h69q27 0 46 20q19 18 21 48v1 q-1 29 -21 48q-18 19 -46 19h-69zM467 511v-1q-1 -29 18 -49q19 -18 48 -19h69q27 0 46 19q19 21 21 49v1q-1 29 -21 47q-18 21 -46 21h-69q-27 -1 -48 -21q-19 -20 -18 -47z" />
<glyph unicode="&#xf007;" horiz-adv-x="883" d="M606 1606l-606 -803l606 -803h277l-604 803l604 803h-277z" />
<glyph unicode="&#xf008;" horiz-adv-x="880" d="M880 806l-606 803h-279l605 -803l-605 -805h279z" />
<glyph unicode="&#xf009;" horiz-adv-x="1605" d="M0 1237l802 -604l804 606v-279l-804 -606l-802 604v279z" />
<glyph unicode="&#xf00a;" horiz-adv-x="1594" d="M-3 629v-277l800 601l797 -601v277l-797 603z" />
<glyph unicode="&#xf00b;" d="M1477 1603h-2l-165 -193q-240 106 -491 17q-239 -85 -357 -302l180 -86q82 142 244 200q145 51 288 9l-140 -160l4 -3l391 -19q33 -50 53 -111q59 -160 3 -315l180 -86q93 231 8 470q-45 119 -115 205zM426 1055q-94 -229 -8 -469q39 -110 109 -197l82 -383h1l166 194 q242 -109 496 -18q237 86 357 304l-181 85q-85 -143 -243 -200q-147 -53 -292 -8l136 159l-1 3l-385 19q-35 50 -55 111q-59 159 -2 314z" />
<glyph unicode="&#xf00c;" d="M1725 864q0 42 -14 72l-537 -441l530 -436q18 30 21 77v728zM1672 974q-16 18 -47 24h-1203q-33 -8 -44 -25l606 -508q32 -27 65 -2zM342 933q-14 -27 -14 -69v-728q0 -41 14 -70l527 432zM383 21q35 -21 95 -21h1093q53 -1 87 16l-535 438l-49 -43q-53 -41 -104 0 l-51 43z" />
<glyph unicode="&#xf00d;" d="M1049 1477q-32 26 -65 -3l-613 -503h4l-6 -2l610 -505q32 -27 64 -1l621 506l1 2zM1725 867q0 42 -14 71l-541 -444l535 -440q18 31 20 77v736zM333 937q-15 -29 -14 -70v-736q-1 -41 14 -69l529 434zM371 16q37 -21 98 -21h1102q54 0 88 18l-539 440l-49 -42 q-54 -43 -106 0l-52 42z" />
<glyph unicode="&#xf00e;" d="M1718 857q0 42 -14 72l-533 -438l526 -433q18 31 21 77v722zM1665 967q-16 18 -46 24h-1195q-32 -9 -42 -25l601 -504q32 -27 64 -3zM345 926q-14 -26 -14 -69v-722q0 -42 14 -69l524 428zM385 19q35 -19 95 -19h1086q55 -1 87 15l-532 435l-49 -41q-51 -42 -103 0 l-51 41zM1055 1469q-26 19 -53 -3l-450 -371h957z" />
<glyph unicode="&#xf010;" d="M527 551q207 -141 350 -337l20 -27q302 426 558 710q93 -143 78 -318q-18 -209 -179 -342q-161 -135 -370 -116q-210 17 -343 177q-96 115 -114 253zM1256 1077q-142 -199 -362 -548l-341 271q43 122 149 210q160 135 370 117q102 -9 184 -50zM1667 1565 q-168 -165 -334 -386q-111 62 -251 75q-262 23 -461 -145q-115 -97 -173 -226l-170 135l-61 -303q94 -39 178 -84q-5 -232 148 -413q168 -201 428 -223q262 -23 462 146t223 429q21 237 -114 422q238 250 484 427z" />
<glyph unicode="&#xf011;" d="M1363 917h-645q2 129 2 272q11 111 94 194q94 95 227 95t226 -95q83 -83 96 -194q-1 -136 0 -272zM1629 917h-128v272q-11 170 -135 292q-134 133 -325 132q-191 1 -323 -132q-125 -122 -137 -292v-272h-141v-917h1189v917z" />
<glyph unicode="&#xf012;" d="M891 912h-139v-912h1185v912h-910v273q-11 169 -131 290q-136 134 -326 134q-189 0 -322 -134q-122 -122 -134 -290v-527h136q0 266 3 527q10 111 92 192q93 94 225 94q133 0 227 -94q83 -81 94 -192v-273z" />
<glyph unicode="&#xf013;" d="M1829 336q0 1 2 32q5 147 -96 248q-102 102 -250 97q-61 -2 -110 -20l-456 456q17 53 19 112q3 147 -98 248q-99 101 -247 98q-117 -5 -206 -70l303 -175q53 -207 -154 -265l-306 177q-1 -16 -1 -33q-5 -146 97 -248q101 -101 248 -97q58 1 112 19l455 -456 q-18 -53 -21 -110q-3 -147 97 -250q101 -101 248 -96q117 2 207 70l-294 170q-54 208 153 266z" />
<glyph unicode="&#xf014;" d="M1806 462v292q-17 139 -116 199q-33 19 -64 32q-62 -56 -135 -81q21 -11 31 -17q98 -58 117 -199v-226h167zM1349 1609q-96 0 -170 -58q109 -13 192 -96q96 -96 98 -233q-1 -83 -38 -155q62 18 112 68q81 82 81 198q0 114 -81 194q-81 82 -194 82zM904 1443 q121 -14 211 -106q109 -106 109 -259q0 -94 -40 -172q69 21 123 76q90 90 91 218q0 128 -91 217q-90 90 -216 90q-106 0 -187 -64zM1144 1054q0 139 -101 240q-99 101 -240 101h-12q-134 -5 -230 -101q-98 -99 -98 -240q0 -143 98 -244q24 -23 47 -39q85 -59 195 -59 q82 0 151 33q49 25 89 65q19 21 34 39q67 90 67 205zM424 695q-139 -80 -167 -247v-448h1095v437q-22 174 -144 245q-17 10 -39 22q-21 10 -39 18q-26 -23 -48 -39q-120 -86 -276 -85q-147 0 -263 75q-5 2 -17 12q-25 18 -47 37q-33 -14 -55 -27zM1408 514v-287h185v362 q-19 155 -129 220q-30 17 -70 36q-69 -62 -151 -91q17 -8 36 -19q108 -64 129 -221z" />
<glyph unicode="&#xf015;" d="M1823 -7q8 64 8 114q0 333 -215 461q-56 33 -114 57q-197 -181 -470 -180q-274 0 -474 180q-42 -17 -79 -40q-251 -144 -252 -478q1 -61 8 -114h1588zM1029 1601q-205 -1 -351 -147q-144 -145 -144 -349q0 -206 144 -352q145 -143 351 -142q205 -1 347 142 q145 146 145 352q0 205 -145 349q-144 146 -347 147z" />
<glyph unicode="&#xf016;" d="M1089 93q-24 -26 -60 -27q-34 0 -61 27q-24 23 -24 57q0 37 24 64q25 24 61 24q37 0 60 -24q26 -27 25 -64q1 -34 -25 -57zM1271 1426q77 0 76 -73v-976q0 -74 -76 -74h-493q-75 0 -74 74v976q-1 73 74 73h493zM1335 1717q0 19 -14 34q-16 16 -38 16h-1q-22 0 -39 -16 q-15 -14 -14 -34v-110h-448q-195 -1 -198 -186v-1234q2 -185 198 -185h491q195 0 194 185v1234q0 152 -131 178v118z" />
<glyph unicode="&#xf017;" d="M1890 398q-23 -27 -56 -28q-33 0 -56 28q-23 25 -23 63q0 19 6 35q7 17 17 29q23 26 56 26q23 0 43 -14q6 -5 13 -12q22 -25 22 -64q0 -38 -22 -63zM1890 658q-24 -26 -56 -26t-56 26q-23 27 -23 64q0 19 6 35q-91 -17 -152 -87l-9 47q152 147 266 89q7 -3 11 -7l13 -13 q22 -26 22 -64t-22 -64zM1987 1162h-1v440l-681 -292v-1088l681 -223v89h1v1074zM645 1242h522v-957h-522v310q161 25 240 -257l91 363q-102 246 -331 293v248zM576 1005h-37v156l-494 -377l494 -378v146q22 14 37 21v-351h673v1088h-673v-305z" />
<glyph unicode="&#xf018;" horiz-adv-x="2067" d="M1909 397q-23 -26 -56 -27q-33 0 -55 27q-24 26 -24 64q0 19 5 35q7 17 19 29q22 26 55 26q24 0 43 -14q6 -5 13 -12q23 -26 22 -64q1 -38 -22 -64zM1931 723q0 -38 -22 -64q-23 -27 -56 -27q-32 0 -55 27q-24 27 -24 64q0 18 5 35q-91 -17 -152 -87l-9 47 q152 147 268 89q7 -5 10 -7q5 -3 13 -13q22 -26 22 -64zM2007 1165h-1v441l-684 -294v-1091l684 -223v89h1v1078zM659 962v283h524v-962h-524v190l322 245zM39 800q46 -112 120 -184q123 -120 321 -123v-157l111 85v-200h675v1092h-675v-298l-111 84v-148 q-216 -137 -321 135q-14 38 -26 80z" />
<glyph unicode="&#xf019;" d="M847 946l3 38h84q146 0 217 13l26 3l-137 -746q61 3 99 53l30 -22q-61 -72 -147 -72q-91 0 -142 45q-49 47 -49 121q0 21 31 213l64 354h-79zM1239 1293q0 -61 -42 -103q-42 -41 -100 -41q-61 0 -102 41q-43 42 -43 103q0 58 43 99q41 46 102 46q57 0 100 -46 q42 -42 42 -99zM946 1605q-278 -26 -484 -232q-235 -237 -236 -567q0 -330 236 -567q237 -235 567 -236q331 0 566 236q237 237 237 567q0 329 -237 567q-206 206 -484 232q-46 3 -82 3q-38 0 -83 -3z" />
<glyph unicode="&#xf01a;" d="M1645 -1q-69 -71 -166 -72q-97 -2 -164 65q-66 66 -64 163q1 97 70 168q71 69 167 70t163 -64q66 -67 66 -164q-1 -97 -72 -166zM447 1072l-218 -217l193 -193l47 47l-39 38l137 136l38 -37l35 34l517 -518q-61 -91 -63 -209q-2 -161 109 -273q112 -111 274 -109 q161 3 276 119q115 115 119 278q3 161 -109 272q-112 113 -273 110q-99 -2 -181 -48l-794 793q-138 -6 -145 -145z" />
<glyph unicode="&#xf01b;" d="M1163 1331q53 -53 53 -126q0 -77 -53 -127q-50 -51 -125 -52q-74 0 -127 52q-51 50 -52 127q0 74 52 126q51 51 127 52q75 -1 125 -52zM1349 921q93 111 94 261q2 176 -120 299q-119 125 -291 128q-174 -3 -294 -128q-121 -125 -120 -299q3 -151 96 -261q13 -18 20 -27 q72 -74 119 -156q24 -35 42 -74q123 -273 137 -654v-8q15 393 136 662q18 40 42 74q48 82 119 156q13 17 20 27z" />
<glyph unicode="&#xf01d;" d="M1023 1605q-71 0 -119 -50q-49 -48 -49 -120v-412q0 -70 49 -119q48 -48 119 -49h4q71 1 119 49t49 119v412q-1 72 -49 120q-48 49 -119 50h-4zM1296 1146q43 -29 87 -72q149 -147 148 -355q0 -209 -148 -354q-149 -149 -356 -149q-208 0 -355 149q-147 145 -149 354 q1 208 149 355q37 39 85 71v241q-129 -51 -238 -160q-211 -211 -212 -507q0 -297 212 -509q211 -210 508 -211q296 1 508 211q211 211 211 509q0 296 -211 507q-110 109 -239 160v-240z" />
<glyph unicode="&#xf01e;" horiz-adv-x="1256" d="M1256 1600h-469v-371h469v371zM787 -6h469v373h-469v-373zM787 611h469v372h-469v-372z" />
<glyph unicode="&#xf020;" d="M695 513l83 -330l163 163l476 -346l412 1598l-972 -1189l-58 -145l-60 289l1090 1045l-1588 -868z" />
<glyph unicode="&#xf021;" d="M1601 1371h-1144v-265h1144v265zM1601 491h-1144v-264h1144v264zM1601 931h-1144v-264h1144v264z" />
<glyph unicode="&#xf022;" d="M1389 1158q149 -151 148 -361q0 -213 -148 -362q-150 -151 -362 -150q-213 0 -362 150q-150 149 -150 362q0 210 150 361q150 150 362 149q212 1 362 -149zM1134 1577q-123 27 -228 0l-29 -132q-54 -10 -114 -36l-98 94q-118 -43 -188 -126l53 -138q-43 -48 -74 -98 l-142 20q-70 -104 -81 -211l132 -87q-3 -39 -3 -66q-1 -29 3 -55l-119 -62q5 -126 58 -219l143 6q40 -69 98 -128l-55 -120q80 -97 181 -137l111 94q67 -26 136 -37l28 -125q122 -29 227 0l32 140q77 21 145 61l106 -86q114 55 177 142l-67 136q29 39 52 84l142 -11 q63 110 65 217l-134 76v24q0 35 -4 83l118 75q-16 126 -78 214l-136 -19q-34 53 -76 96l56 124q-83 96 -182 135l-107 -94q-57 25 -121 37zM774 1049q-105 -104 -105 -252q0 -149 105 -254q105 -104 253 -104q147 0 253 104q105 105 105 254t-105 252q-105 105 -253 105 t-253 -105z" />
<glyph unicode="&#xf023;" d="M1551 1323q216 -216 216 -521q0 -306 -216 -521q-216 -216 -521 -216q-306 0 -523 216q-215 216 -214 521q0 305 214 521q216 216 523 216q305 0 521 -216zM1030 1601q-331 1 -566 -233q-234 -233 -234 -566t234 -564q233 -235 566 -236q330 0 564 236q234 233 235 564 q0 331 -235 566q-234 234 -564 233zM782 1179q-61 0 -102 -60q-42 -62 -42 -149t42 -148q42 -62 102 -62q59 0 100 62q42 62 43 148q0 87 -43 149q-41 60 -100 60zM1186 1119q-42 -63 -41 -149q-1 -86 41 -148q43 -62 102 -62q58 0 102 62q41 62 41 148q0 87 -41 149 q-42 61 -102 60q-60 1 -102 -60zM459 639q536 -202 1141 0q-17 -104 -97 -192q-490 -157 -948 0q-79 89 -96 192zM576 350q189 -186 454 -187q265 0 451 187q149 150 180 344q-685 -225 -1263 0q31 -195 178 -344z" />
<glyph unicode="&#xf024;" d="M371 690q605 -237 1318 0q-33 -205 -186 -360q-195 -195 -472 -195q-278 0 -473 195q-155 155 -187 360zM878 1133q43 -64 42 -155q1 -90 -42 -154q-45 -65 -108 -64q-61 -1 -104 64q-46 65 -45 154q0 89 45 155q43 64 104 64q63 0 108 -64zM1301 1197q61 0 105 -64 q45 -65 44 -155q0 -90 -44 -154q-45 -65 -105 -64q-63 -1 -108 64q-43 64 -43 154q0 89 43 155q46 64 108 64zM1591 1365q-232 231 -560 230q-329 0 -561 -230q-232 -233 -233 -562q1 -330 233 -562q232 -231 561 -231q328 0 560 231q232 232 232 562q0 329 -232 562z M537 431q475 -163 989 0q81 91 99 201q-631 -211 -1190 0q20 -108 102 -201z" />
<glyph unicode="&#xf025;" d="M1563 1384q11 23 -33 70q-45 47 -121 90q-74 43 -139 59q-64 16 -77 -6l-564 -978q93 18 121 -70q102 14 137 -79q91 21 111 -64zM603 575l-28 -354l106 -62l292 203q-19 86 -111 64q-35 94 -137 79q-29 89 -122 70v0zM482 50q-5 -5 -7 -11q-2 -3 -2 -10q1 -7 4 -10 q6 -7 12 -9q8 -5 22 -7q17 -3 33 -3q14 0 22 1q6 0 18 1q2 1 8 1q6 1 9 3q10 2 29 5q33 8 49 12q-3 0 39 11q25 9 48 21q24 13 44 25q23 14 41 27q6 5 21 15q15 11 22 17q19 15 44 30q14 8 33 16q50 19 100 33v3q-21 1 -41 -3q-23 -1 -45 -9q-15 -3 -42 -14q-11 -3 -25 -10 q-9 -3 -25 -12q-27 -17 -42 -28q-14 -9 -36 -26q-18 -13 -39 -24q-7 -3 -19 -9q-13 -7 -18 -11q-18 -8 -43 -16q-31 -9 -46 -11q-15 -3 -53 -10q-13 -1 -32 3q-1 -1 -8 4q-9 5 -7 14l7 14q-34 -7 -54 -12q-6 -1 -14 -5q-6 -5 -7 -6zM561 102q-2 -27 24 -14l64 45l-81 46z " />
<glyph unicode="&#xf026;" d="M1319 206v1183h-808v-227v0q41 0 68 -33q29 -33 29 -80t-29 -81q-29 -33 -68 -32v0v-46v0q40 0 68 -33q29 -34 29 -81t-29 -81q-29 -32 -68 -32v0v-40v0q40 0 68 -33q29 -33 29 -81q0 -47 -29 -82q-29 -32 -68 -32v0v-189h808zM499 982q31 0 53 20q24 19 24 47v0 q0 29 -24 49q-22 21 -53 21h-81q-32 0 -55 -21q-22 -21 -20 -49v0q-1 -27 20 -47q23 -21 55 -20h81zM418 839q-32 0 -55 -18q-22 -21 -20 -50v-1q-1 -27 20 -48q23 -18 55 -18h81q32 0 53 18q24 21 24 48v1q0 29 -24 50q-21 18 -53 18h-81zM576 510q0 27 -24 48 q-22 21 -53 20h-81q-32 0 -55 -20q-22 -21 -20 -48v-1q-1 -27 20 -47q23 -21 55 -20h81q31 -1 53 20q24 19 24 47v1z" />
<glyph unicode="&#xf027;" d="M474 842q-1 -29 16 -47q21 -21 48 -19h71q25 -1 44 19q21 17 20 47q0 29 -20 49q-18 18 -44 19h-71q-27 0 -48 -19q-17 -20 -16 -49zM609 631h-71q-27 0 -48 -20q-17 -19 -16 -48v0q-1 -29 16 -48q21 -19 48 -18h71q25 -1 44 18q21 19 20 48v0q0 29 -20 48q-19 20 -44 20 zM538 371q-27 -1 -48 -20q-17 -21 -16 -47v-1q-1 -30 16 -49q21 -19 48 -17h71q25 -2 44 17q21 18 20 49v1q0 26 -20 47q-17 19 -44 20h-71zM975 1073q22 -72 4 -112l-177 89l118 -321l391 120l-189 61q50 87 67 163h139v-947h-554v947h201zM1440 1184h-247 q-17 114 -134 200l-428 225q211 -261 298 -425h-311v-229q41 0 68 -32q30 -32 31 -80q-1 -48 -31 -80q-27 -34 -68 -33v-45q40 0 68 -34q30 -33 31 -81q-1 -47 -31 -81q-27 -33 -68 -33v-38q41 -1 68 -34q30 -34 31 -81q-1 -47 -31 -80q-26 -33 -68 -33v-190h822v1184z M1043 394q3 -6 3 -15q-2 -8 -8 -12q-7 -3 -16 -4q-7 2 -12 8q-5 7 -3 16q1 8 9 13q6 3 14 2q7 -1 13 -8zM906 570q6 -14 -2 -28q-6 -11 -15 -28q-7 -13 -15 -12q-7 0 -17 12q-8 13 -4 31q3 15 26 25q24 11 24 13q0 -2 3 -13zM1226 461q-46 -43 -72 -47h-24q1 5 8 17 q16 30 12 63q-3 14 -28 -8q-23 -22 -48 -27q-7 -3 -15 -3v2l-1 1q-22 22 -41 37q13 14 16 25q6 13 5 31q0 19 -4 24q1 -5 -12 -14q-16 -13 -43 -27q-11 -6 -17 -12q-29 8 -55 0l3 4q15 25 3 49q-8 19 -9 24q0 -2 -33 -18q-33 -15 -46 -45q-14 -30 -3 -55q6 -10 10 -15 q-17 -22 -21 -51q-13 -66 46 -113t135 -74q70 -25 126 5q-13 9 -25 21q-1 2 -5 6q-3 3 -5 4q21 -19 47 -24q22 -5 43 0q57 35 69 93q-10 -1 -19 0q-21 3 -34 19q-9 13 -13 24q3 -6 8 -11q17 -19 42 -21q9 -1 19 1q19 16 32 33q32 48 27 109q-5 58 -40 98q1 -7 2 -21 q5 -62 -40 -104z" />
<glyph unicode="&#xf028;" d="M1387 986q147 -147 148 -357q0 -209 -148 -356q-146 -147 -355 -147q-210 0 -358 147q-146 147 -146 356t146 357q147 146 358 147q209 -1 355 -147zM1029 1258q-262 0 -445 -184q-184 -183 -184 -445t184 -445q183 -184 445 -184q263 0 446 184q184 183 184 445 t-184 445q-183 184 -446 184z" />
<glyph unicode="&#xf029;" d="M902 190q589 846 1124 1228l-356 145q-357 -351 -773 -1032l-614 486l-59 -302q423 -175 657 -498z" />
<glyph unicode="&#xf02a;" d="M1032 1128q206 3 355 -145q145 -145 146 -357q0 -210 -146 -355q-144 -144 -355 -148q-213 3 -355 148q-149 147 -149 355t149 357q148 148 355 145zM584 182q182 -182 445 -182q261 0 445 182q182 186 182 444q0 261 -182 444q-184 184 -445 184q-264 0 -445 -184 q-186 -183 -183 -444q-3 -258 183 -444zM1401 930l-74 73l-298 -297l-298 295l-74 -74l298 -297l-300 -299l76 -74l298 298l300 -300l74 76l-300 299z" />
<glyph unicode="&#xf02b;" d="M949 1525v-80q-27 -2 -72 -11q-83 -31 -151 -96q-99 -96 -117 -227q0 -3 -1 -13q-1 -152 -1 -228q-2 -243 -246 -493h1335q-271 250 -271 493q-2 232 -2 228v13q-18 131 -118 227q-65 65 -147 96q-29 7 -59 11v80q0 31 -21 52q-21 23 -52 23h-2q-31 0 -53 -23 q-22 -21 -22 -52zM853 329q10 -56 53 -99q57 -55 136 -55t136 55q43 42 54 99h-379z" />
<glyph unicode="&#xf02c;" d="M946 1443q-13 -1 -36 -4q-24 -3 -36 -5q-87 -31 -152 -97q-104 -101 -119 -230v-13q-3 -73 -3 -229q0 -247 -246 -497h1348q-274 250 -275 497q-5 77 -4 229v13q-15 134 -116 230q-69 69 -148 97q-22 2 -61 9v82q0 31 -20 54q-22 22 -54 22q-34 0 -55 -22 q-23 -23 -23 -54v-82zM835 320q8 -54 55 -102q56 -55 136 -55t139 55q43 43 52 102h-382zM1590 -181q-239 -230 -572 -229q-326 0 -554 213l-30 -29q243 -231 585 -231q357 2 604 244zM1502 -90q-198 -194 -483 -195q-271 -2 -465 179l-32 -33q207 -187 496 -188 q302 0 515 206zM1393 16q-154 -149 -371 -149q-207 0 -358 135l-35 -36q163 -145 390 -145q239 -2 408 161z" />
<glyph unicode="&#xf02d;" d="M1321 798q115 -115 116 -280q0 -163 -116 -280q-117 -117 -281 -117q-165 0 -280 117q-118 117 -117 280q-1 163 117 280q115 117 280 117q164 0 281 -117zM1827 902q0 143 -142 143h-314l-110 272h-416l-124 -272h-353q-143 0 -143 -143v-759q0 -143 143 -143h1317 q143 0 142 143v759z" />
<glyph unicode="&#xf02e;" d="M929 1133q-70 71 -169 70q-99 0 -169 -70q-34 -33 -52 -76q-15 -34 -17 -74q-1 -13 -1 -18q0 -19 2 -38q1 -8 5 -18q10 -51 46 -94q7 -9 17 -20q27 -27 57 -43l77 123l99 -142q58 16 105 62q10 10 18 20q34 42 46 94q2 10 4 18q3 18 3 38q-1 3 -1 9v9q-3 40 -17 74 q-20 44 -53 76zM1330 1009l-344 -587l-261 378l-496 -800h1593z" />
<glyph unicode="&#xf030;" horiz-adv-x="603" d="M603 1621q-65 -1069 -603 -1178q89 -326 603 -442v1620z" />
<glyph unicode="&#xf031;" horiz-adv-x="598" d="M0 1598v-1608q65 1062 599 1169q-89 322 -599 439z" />
<glyph unicode="&#xf032;" horiz-adv-x="1604" d="M2 1608q1057 -65 1165 -597q321 89 438 597h-1603z" />
<glyph unicode="&#xf033;" horiz-adv-x="1598" d="M0 -457h1599q-115 507 -437 596q-107 -531 -1162 -596z" />
<glyph unicode="&#xf034;" d="M1485 787v16h572l-577 559h-1114q-80 1 -80 -80v-973q0 -80 80 -80h1114l577 558h-572z" />
<glyph unicode="&#xf035;" d="M1263 1399h-599v-129h599v129zM1263 1134h-599v-128h599v128zM456 1351q-21 22 -54 23h-83q-35 -1 -58 -23q-22 -25 -21 -58q-1 -33 21 -59q24 -22 58 -21h83q31 0 54 21q24 24 25 59q-1 34 -25 58zM240 959v-2q-1 -32 21 -56q24 -24 58 -24h83q31 0 54 24q24 23 25 56v2 q-1 34 -25 57q-22 23 -54 23h-83q-35 0 -58 -23q-22 -24 -21 -57zM481 646q-1 32 -25 56q-22 25 -54 26h-83q-35 -1 -58 -26q-22 -24 -21 -56v-3q-1 -34 21 -57q24 -24 58 -23h83q31 -1 54 23q24 23 25 57v3zM1344 992q66 0 119 -30v647h-1048v-182q47 1 80 -40 q35 -38 36 -94q-1 -58 -36 -96q-32 -40 -80 -40v-55q47 1 80 -39q35 -40 36 -97q-1 -57 -36 -97q-33 -41 -80 -42v-45q47 0 80 -41q35 -39 36 -98q-1 -57 -36 -96q-33 -40 -80 -40v-169h518q1 8 8 28q23 80 91 124h-432v990h731v-488h13zM1317 947q-75 -7 -133 -66 q-67 -65 -67 -161t67 -163q56 -56 133 -64q10 -1 28 -2q95 -1 164 66q66 69 66 163q0 95 -66 161q-67 67 -164 69q-14 -1 -28 -3zM1317 415q-109 8 -190 83q-11 -6 -37 -19q-115 -67 -115 -222q0 -27 3 -54h736q2 18 4 54q0 154 -100 214q-26 15 -52 27q-93 -85 -219 -84 q-9 0 -30 1z" />
<glyph unicode="&#xf036;" d="M1275 784q103 -3 176 -75q69 -70 75 -165v-158l-255 1l387 -387l388 386h-260q-1 54 -1 158v7q-8 199 -151 340q-150 149 -359 152v-259zM1277 1043h-1277v-259h1277v259zM0 0h1232v258h-1232v-258zM0 389h1232v259h-1232v-259z" />
<glyph unicode="&#xf037;" horiz-adv-x="2172" d="M1872 962q-17 -110 -106 -172q-90 -67 -199 -47q-106 23 -145 127q-35 101 -3 199l155 158q19 10 56 7q113 7 187 -80q72 -81 55 -192zM1998 1087q-24 105 -102 176q-78 70 -160 90q-83 18 -163 18h-1419l651 -649v-717l277 258v468l161 163q29 -62 75 -121 q63 -83 162 -126q99 -46 208 -24q105 17 189 88q79 70 110 170q33 104 11 206z" />
<glyph unicode="&#xf038;" d="M1392 715h155l-26 -385h-102zM1535 127q-25 -26 -65 -26q-39 0 -67 26q-24 27 -24 66q0 41 24 68q27 27 67 27q41 0 65 -27q25 -26 25 -68q0 -39 -25 -66zM1779 738q-112 112 -261 126q-19 2 -45 2q-10 0 -15 -1q-15 0 -28 -1q-150 -14 -262 -126q-128 -128 -127 -305 q-1 -119 57 -217q29 -47 70 -89q127 -127 305 -127t306 127q127 128 127 306q0 177 -127 305zM1474 928l175 680l-918 -1123l-56 -138l-56 274l1030 987l-1500 -821l428 -204l79 -312l154 154l189 -137q-21 67 -21 145q0 205 145 350q127 127 300 143q29 2 50 2h1z" />
<glyph unicode="&#xf039;" d="M645 841q29 -1 48 21q22 19 22 51q-1 31 -22 53q-19 21 -48 20h-77q-31 0 -51 -20q-19 -22 -20 -53q0 -32 20 -51q22 -22 51 -21h77zM715 611q-1 31 -22 53q-19 19 -48 19h-77q-31 0 -51 -19q-19 -22 -20 -53v-1q0 -31 20 -50q21 -22 51 -22h77q29 0 48 22q22 19 22 50v1 zM568 402q-31 -1 -51 -23q-19 -21 -20 -50v-1q0 -32 20 -54q21 -21 51 -19h77q29 -1 48 19q22 22 22 54v1q-1 30 -22 50q-19 22 -48 23h-77zM1425 1163v-370l-180 57q104 176 50 313h130zM1025 1163q98 -178 65 -257l-192 97l128 -348l399 122v-641h-602v1027h202z M1543 1281h-282l-40 81l-508 244q147 -182 241 -325h-299v-246q43 0 73 -35q32 -37 33 -87q-1 -51 -33 -87q-30 -37 -73 -36v-49q43 0 73 -36q32 -37 33 -88q-1 -51 -33 -87q-30 -37 -73 -36v-43q43 0 73 -36q32 -37 33 -87q-1 -50 -33 -87q-30 -37 -73 -36v-205h888v1281z " />
<glyph unicode="&#xf03a;" d="M1579 1485q54 0 92 -37q37 -38 36 -89q0 -54 -36 -90q-38 -38 -92 -38q-51 0 -88 38q-37 37 -36 90q0 53 36 89q35 37 88 37zM1760 1536q-75 74 -181 73q-105 0 -174 -73h-3q-73 -72 -73 -177q0 -43 10 -80l-34 -40l-206 203q-13 13 -28 13q-17 0 -29 -13l-55 -57 q-13 -11 -12 -28q0 -18 12 -29l202 -201l-559 -559q-29 54 -44 107q-24 73 -24 155q-1 47 3 83l83 -26q17 -5 32 3q15 6 21 21q7 15 0 31l-152 331q-3 11 -15 18q-15 7 -29 6q-15 -2 -24 -11l-236 -240q-13 -10 -14 -27q0 -16 10 -28q10 -13 26 -15l86 -10q-11 -65 -12 -134 v-2q-5 -154 57 -293q54 -114 151 -216q103 -98 222 -152q133 -57 287 -57q73 0 139 8l6 -81q2 -17 16 -29q11 -10 27 -10q17 1 28 13l244 240q9 11 12 24q1 16 -5 28q-7 11 -21 16l-334 151q-16 7 -31 0q-15 -5 -21 -21q-8 -15 -3 -30l29 -87q-32 -1 -88 -6q-81 5 -154 24h2 q-57 21 -110 55l556 555l201 -197q11 -14 28 -14t29 14l61 52q13 13 12 31q0 16 -12 29l-207 203l40 37q39 -11 77 -11q105 0 181 76v-3q75 71 75 178q0 109 -75 179z" />
<glyph unicode="&#xf03b;" d="M1030 583q72 0 114 -47q43 -47 43 -119q0 -69 -43 -115q-42 -47 -114 -47q-70 0 -116 47q-43 47 -43 115q0 72 43 119q46 47 116 47zM893 1337h273l-47 -678h-176zM944 1602q-280 -26 -486 -232q-237 -237 -236 -567q0 -331 236 -568q235 -235 567 -235q331 0 568 235 q235 237 236 568q0 330 -236 567q-206 206 -486 232q-42 5 -82 5q-39 0 -81 -5z" />
<glyph unicode="&#xf03c;" d="M1029 690q107 0 182 -75q74 -75 75 -182q0 -106 -75 -182q-75 -75 -182 -75q-106 0 -182 75q-74 75 -74 182q0 106 74 182q76 75 182 75zM779 1006l-152 -165h-216l154 165h214zM757 1128l-200 -82l-203 95l199 81zM1270 841l152 165h216l-153 -165h-215zM1151 1289 l-200 -81l-204 94l200 82zM1206 1006l-152 -165h-216l153 165h215zM1550 1453l-200 -82l-203 95l199 81zM559 1026l1132 464l-252 118l-1175 -481l1 -908q5 -210 178 -219h1110q240 -1 240 219v807h-1234zM1222 430l-293 147v-294z" />
<glyph unicode="&#xf03d;" d="M1606 1175q-54 99 -206 99h-683v133q0 81 -83 81h-220q-81 0 -81 -81v-136q-13 -1 -20 -4q-161 -32 -161 -226v-927h2l219 848q48 205 227 213h1006zM1901 915q56 214 -178 214h-1076q-171 -10 -229 -214l-207 -801h1483z" />
<glyph unicode="&#xf03e;" d="M1842 1606h-467v-463h467v463zM1842 463h-467v-463h467v463zM1842 1034h-467v-460h467v460zM1264 1606h-469v-463h469v463zM685 1606h-468v-463h468v463zM685 1034h-468v-460h468v460zM685 463h-468v-463h468v463zM795 0h469v463h-469v-463zM1264 1034h-469v-460h469v460 z" />
<glyph unicode="&#xf040;" d="M1971 1203q-69 69 -170 69q-102 0 -175 -69q-69 -73 -68 -174q0 -105 68 -176q72 -71 175 -70q102 -1 170 70q71 71 71 176q0 102 -71 174zM1977 422q-69 69 -171 68q-102 0 -173 -68q-70 -74 -71 -179q1 -103 71 -172q71 -71 173 -71q103 0 171 71q71 70 70 172 q1 105 -70 179zM1024 783q103 -1 170 70q73 71 73 176q0 103 -73 174q-67 69 -170 69q-102 0 -175 -69q-69 -73 -68 -174q0 -104 68 -176q73 -71 175 -70zM0 1029q-1 -104 67 -176q73 -71 176 -70q102 -1 171 70q72 71 73 176q-1 103 -73 174q-70 69 -171 69 q-103 0 -176 -69q-68 -72 -67 -174zM414 422q-69 69 -171 68q-104 0 -176 -68q-69 -73 -67 -179q-1 -103 67 -172q73 -71 176 -71q102 0 171 71q72 70 73 172q-1 106 -73 179zM851 422q-69 -73 -68 -179q0 -104 68 -172q72 -71 175 -71t172 71q72 70 73 172q-1 105 -73 179 q-69 69 -172 68q-103 1 -175 -68z" />
<glyph unicode="&#xf041;" d="M1835 752v101h-753v753h-103v-753h-750v-101h750v-752h103v752h753z" />
<glyph unicode="&#xf042;" d="M1503 1442q259 -267 262 -645q-2 -363 -243 -627l33 -34q258 278 260 663q-1 397 -276 680zM1281 1222q167 -176 168 -422q-1 -233 -151 -406l39 -39q165 189 166 444q-1 267 -184 460zM1401 1342q218 -227 221 -543q-1 -305 -201 -527l35 -35q214 235 215 560 q-2 338 -236 579zM691 1113h-449v-619h449l495 -494v1608z" />
<glyph unicode="&#xf043;" d="M1538 1310q210 -211 211 -511q0 -298 -211 -510q-210 -210 -509 -210q-298 0 -510 210q-210 211 -210 510q0 301 210 511q211 209 510 209t509 -209zM1029 1600q-333 0 -566 -234q-234 -234 -234 -566q0 -333 234 -567q233 -234 566 -233q333 -1 566 233q233 233 234 567 q0 333 -234 566q-233 234 -566 234zM1510 1224l-57 57l-424 -424l-426 424l-56 -57l424 -424l-424 -424l56 -57l426 425l424 -425l57 57l-425 424z" />
<glyph unicode="&#xf044;" horiz-adv-x="2099" d="M1557 1174q89 -97 101 -241q13 -151 -66 -264q-33 -47 -78 -86q-22 -5 -44 -2q-64 5 -107 53q-11 13 -19 27q8 -31 32 -59q35 -40 83 -47q24 -5 46 2q-29 -143 -170 -229q-48 -14 -102 -2q-65 14 -113 58q13 -14 21 -21q31 -32 60 -52q-136 -74 -307 -13 q-186 67 -329 180q-144 112 -114 277q13 70 52 126q-11 14 -22 37q-26 62 5 133q30 73 113 112q78 35 81 42q2 -9 23 -55q26 -61 -9 -124l-4 -8q64 19 134 0q13 16 38 29q69 37 108 66q31 23 30 31q6 -8 7 -54q2 -46 -9 -76q-13 -32 -44 -63q49 -37 102 -90l6 -6q16 1 36 6 q58 13 117 65q57 54 66 20q10 -82 -30 -156q-3 -7 -11 -22q-7 -13 -10 -18q32 -3 59 0q64 7 177 113q111 106 99 256q-2 30 -8 55zM1835 805q0 334 -235 568q-235 237 -568 235q-333 1 -569 -235q-235 -235 -234 -568q0 -83 13 -158q6 -32 15 -63q13 -46 33 -96 q26 -58 52 -106q8 -16 12 -28q14 -34 21 -67q25 -117 -38 -193q98 -69 281 19q82 -50 172 -78q113 -34 242 -35q334 1 568 237q235 234 235 568zM552 1069q-8 -40 15 -71q23 -32 39 -31q18 0 37 31q16 26 37 66q17 35 6 70q-9 27 -9 31q-2 -3 -60 -30q-57 -26 -65 -66z M987 723q-19 3 -36 -8t-21 -32q-3 -19 8 -35q13 -17 32 -21q19 -5 37 8q17 11 19 31q5 19 -7 37q-13 17 -32 20z" />
<glyph unicode="&#xf045;" horiz-adv-x="11061" d="M7842 867q0 153 102 266q106 104 255 104q151 0 255 -104q104 -112 104 -266v-185q0 -155 -104 -261t-255 -107q-149 0 -255 107q-102 106 -102 261v185zM8488 1587q-352 9 -559 -58q-216 -62 -359 -241q-42 -57 -72 -104q-18 -31 -43 -90q0 -6 -5 -16q-3 -15 -5 -20 q-42 -118 -48 -267q-3 -339 224 -575q160 -163 362 -222q79 -19 143 -21q19 -3 58 -4h57q75 3 143 16q207 54 367 208q239 235 248 569q0 138 -40 271q0 6 -8 30q-42 107 -38 90q-16 71 -22 116q-27 128 82 310q-238 2 -485 8zM6909 931h-710q19 114 100 202 q101 104 253 104q151 0 253 -104q79 -84 104 -202zM7161 1304q-214 273 -609 273q-343 0 -576 -228q-139 -131 -198 -310q-40 -125 -40 -257q0 -151 40 -285q54 -189 191 -308q221 -210 593 -211q277 0 472 118q88 53 147 122q93 107 137 259h-467q-2 -5 -46 -56 q-102 -106 -253 -107q-152 0 -253 107q-95 93 -104 233h1148q17 382 -162 625q-12 18 -20 25zM4686 1333q-106 245 -443 244q-283 0 -433 -254h-8q-197 206 -476 206v-1506h496v732q0 226 59 323q56 89 193 89q185 0 185 -289v-855h498v737q0 216 36 295q48 112 193 112 q211 0 212 -258v-886h492v899q0 287 -90 433q-122 222 -442 222q-287 1 -472 -244zM2813 682q0 -155 -104 -261t-256 -107q-151 0 -252 107q-105 106 -105 261v185q0 153 105 266q101 104 252 104q152 0 256 -104q104 -112 104 -266v-185zM2711 1537q-121 42 -269 42 q-339 2 -572 -233q-162 -162 -216 -364q-19 -67 -23 -129v-143q6 -62 23 -129q56 -210 216 -365q230 -231 572 -235q154 5 269 44q96 31 121 46q54 19 109 27q127 25 317 -75v482q6 337 -67 553q-70 218 -250 357q-72 53 -107 72q-66 40 -123 50zM238 1346 q-239 -238 -239 -564q0 -328 239 -566q235 -233 571 -233q343 0 576 233q99 95 162 216q2 11 11 31q11 19 15 28h-464q-7 -15 -55 -70q-102 -106 -251 -107q-154 0 -254 107q-106 106 -107 261v185q0 153 107 266q101 104 254 104q149 0 251 -104q83 -89 100 -202h457 q-29 127 -64 200q-63 122 -162 215q-233 233 -576 233q-336 0 -571 -233zM11038 1534v57h-564v-57h252v-740h63v740h249zM10392 1534v57h-438v-797h453v54h-393v344h320v54h-320v288h378zM9736 1591h-62v-513q0 -19 4 -57v-53q2 -27 2 -73l-416 696h-58v-797h58v621 q-1 26 -1 72l411 -693h62v797z" />
<glyph unicode="&#xf046;" horiz-adv-x="1672" d="M238 1346q-239 -238 -239 -564q0 -328 239 -566q235 -233 571 -233q343 0 576 233q99 95 162 216q2 11 11 31q11 19 15 28h-464q-7 -15 -55 -70q-102 -106 -251 -107q-154 0 -254 107q-106 106 -107 261v185q0 153 107 266q101 104 254 104q149 0 251 -104 q83 -89 100 -202h457q-29 127 -64 200q-63 122 -162 215q-233 233 -576 233q-336 0 -571 -233z" />
<glyph unicode="&#xf047;" horiz-adv-x="1672" d="M1182 703q0 -155 -104 -262q-104 -106 -256 -106q-151 0 -252 106q-105 106 -105 262v185q0 153 105 265q101 104 252 104q152 0 256 -104q104 -112 104 -265v-185zM1080 1558q-121 42 -269 42q-339 2 -572 -233q-162 -162 -216 -365q-19 -67 -23 -129v-143 q6 -62 23 -129q56 -210 216 -364q230 -231 572 -236q154 5 269 45q96 31 121 45q54 19 109 28q127 25 317 -76v483q6 337 -67 553q-70 218 -250 356q-72 53 -107 72q-66 41 -123 51z" />
<glyph unicode="&#xf048;" horiz-adv-x="2400" d="M1360 1355q-106 245 -442 245q-283 0 -433 -254h-8q-197 206 -477 206v-1506h496v732q0 226 59 323q56 89 194 89q185 0 185 -289v-855h497v737q0 216 36 295q48 112 194 112q211 0 211 -259v-885h493v899q0 287 -91 433q-122 222 -442 222q-287 0 -472 -245z" />
<glyph unicode="&#xf049;" horiz-adv-x="1636" d="M1170 962h-709q19 114 100 201q101 104 253 104q151 0 252 -104q79 -83 104 -201zM1423 1335q-214 273 -609 273q-343 0 -576 -229q-139 -131 -198 -309q-40 -125 -40 -257q0 -151 40 -285q54 -189 191 -309q221 -210 593 -210q277 0 472 118q88 53 146 122 q93 107 137 258h-466q-2 -5 -47 -56q-102 -106 -252 -106q-152 0 -253 106q-95 93 -104 234h1148q17 382 -163 625q-11 18 -19 25z" />
<glyph unicode="&#xf04a;" horiz-adv-x="1714" d="M446 898q0 153 101 265q106 104 255 104q151 0 255 -104q104 -112 104 -265v-185q0 -155 -104 -262q-104 -106 -255 -106q-149 0 -255 106q-102 106 -101 262v185zM1091 1618q-352 9 -558 -58q-216 -62 -359 -241q-42 -57 -72 -104q-18 -31 -44 -90q0 -6 -4 -16 q-3 -15 -6 -20q-42 -118 -48 -267q-3 -339 224 -575q160 -163 362 -222q79 -19 143 -22q19 -3 58 -3h58q75 3 142 16q207 54 367 208q239 235 248 569q0 138 -40 271q0 6 -8 30q-42 107 -37 90q-16 71 -22 115q-27 128 81 311q-238 2 -485 8z" />
<glyph unicode="&#xf04b;" horiz-adv-x="1828" d="M1831 1565v57h-564v-57h252v-740h63v740h249zM1185 1565v57h-438v-797h453v54h-393v344h320v54h-320v288h378zM529 1622h-62v-513q0 -19 4 -58v-52q2 -27 2 -73l-416 696h-58v-797h58v621q-1 26 -1 72l411 -693h62v797z" />
<glyph unicode="&#xf04c;" d="M1894 686q47 -75 0 -151q-6 -6 -17 -18q-11 -13 -18 -19q-370 -366 -890 -376q-119 -2 -217 16q-103 19 -214 65q-182 80 -349 246q-1 1 -35 39q-48 75 0 150q17 19 35 37q371 366 890 376q109 5 217 -16q109 -21 200 -59q198 -88 363 -251q36 -40 35 -39zM1979 753 q-190 206 -384 309q-65 30 -161 60l4 -1q-182 53 -363 53q-589 -14 -1006 -472q-19 -21 -43 -47q-55 -93 0 -185q21 -25 161 -167q139 -142 364 -230l-24 10q231 -83 444 -83q587 14 1008 472q29 31 42 47q55 93 0 185q-20 24 -42 49zM1110 670q35 -35 35 -85t-35 -86 q-34 -35 -85 -35t-86 35q-37 37 -35 86q-1 49 35 85q35 35 86 35q50 0 85 -35zM741 869q-119 -118 -119 -284q0 -167 119 -284q117 -118 283 -118q167 0 285 118q118 117 117 284q0 167 -117 284q-118 118 -285 117q-165 1 -283 -117z" />
<glyph unicode="&#xf04d;" horiz-adv-x="2049" d="M1155 477q-33 -33 -81 -34q-25 0 -47 10l151 153q10 -24 11 -48q-1 -47 -34 -81zM1901 654q45 -71 0 -143q-6 -6 -18 -17q-11 -13 -16 -19q-352 -347 -845 -357q-166 3 -311 42l96 95q14 7 22 10q103 -89 244 -89q159 0 271 112q112 111 112 270q0 143 -91 248l139 138 q195 -88 363 -253q35 -38 34 -37zM1873 1413q-19 23 -48 22q-29 2 -50 -18l-1580 -1561q-22 -19 -22 -51q-2 -31 16 -54q19 -24 48 -26q29 -1 50 19l332 329q192 -66 404 -71q560 13 959 449q26 29 39 45q53 87 0 175q-18 24 -39 48q-184 199 -395 307l282 278q22 22 22 53 q1 32 -18 56zM1278 1138q-120 26 -255 29q-560 -13 -959 -448q-14 -16 -38 -48q-53 -88 0 -175q21 -26 38 -45q127 -141 275 -238z" />
<glyph unicode="&#xf04e;" d="M1078 1011q0 17 -13 30q-11 13 -30 14q-18 -1 -28 -14q-14 -13 -14 -30v-342h-343q-17 0 -29 -14q-13 -13 -13 -29q0 -18 13 -29q13 -13 29 -15h343v-342q0 -18 14 -31q10 -14 28 -14t30 14q13 13 13 31v342h341q18 2 31 15q11 11 12 29q0 16 -12 29q-13 14 -31 14h-341 v342zM1032 1128q206 3 355 -145q145 -145 146 -357q0 -210 -146 -355q-144 -144 -355 -148q-213 3 -355 148q-149 147 -149 355t149 357q148 148 355 145zM584 182q182 -182 445 -182q261 0 445 182q182 186 182 444q0 261 -182 444q-184 184 -445 184q-264 0 -445 -184 q-186 -183 -183 -444q-3 -258 183 -444z" />
<glyph unicode="&#xf050;" d="M1031 1227q-249 0 -422 -174q-175 -173 -175 -422t175 -422q173 -175 422 -175t423 175q175 173 175 422q0 248 -175 422q-174 174 -423 174z" />
<glyph unicode="&#xf051;" horiz-adv-x="2049" d="M1559 1422q1 79 -55 133q-55 55 -135 55q-79 0 -134 -55q-56 -54 -57 -133q1 -71 46 -123l-214 -259l9 -9l237 238q48 -38 113 -38q80 0 135 56q56 56 55 135zM642 357h753v-77h-753v77zM642 505h753v-75h-753v75zM642 650h753v-75h-753v75zM1011 1002l-28 28l140 169 h-625v-1199h1062v1199h-352z" />
<glyph unicode="&#xf052;" horiz-adv-x="2049" d="M873 1465q214 6 373 -154q154 -154 154 -373q0 -218 -154 -372q-154 -153 -373 -153q-221 0 -369 153q-158 158 -158 372q0 215 158 373q153 160 369 154zM408 1411q-198 -192 -198 -468q0 -187 91 -330q43 -71 107 -140q193 -193 465 -193q203 0 361 104l388 -384 l218 218l-390 395q85 145 85 330q0 275 -192 468q-96 90 -212 140q-119 54 -258 54q-272 -1 -465 -194z" />
<glyph unicode="&#xf053;" horiz-adv-x="2049" d="M928 1371q1 27 18 52q15 24 41 25q27 2 48 -25q22 -26 24 -68l69 -505l9 419q0 33 18 56q18 24 45 22q25 1 43 -21q19 -25 21 -59l11 -501q-25 9 -53 15q-57 13 -117 12q-71 0 -134 -10q-65 -11 -124 -36q-38 -15 -68 -27q38 11 66 17q57 13 125 20q62 8 112 9 q47 2 116 -14q66 -14 95 -32l21 78q7 22 16 48q16 43 31 72q37 71 86 95q49 26 75 12q24 -17 30 -52q7 -35 -10 -69q-94 -243 -117 -377q-24 -129 -43 -159q-21 -31 -100 -105q-77 -71 -218 -76q-142 -3 -238 68q-95 70 -129 184q-24 343 -80 489l-39 101q-21 51 -1 89 q17 39 58 31q45 -6 56 -47l109 -293l-61 426q-5 35 10 66q15 29 40 33q24 8 46 -14q23 -21 30 -55l97 -430l-16 253q-10 70 -18 232q-2 24 0 51zM1834 874q-30 333 -285 548q-255 214 -587 184q-331 -29 -546 -284q-214 -256 -184 -587q29 -331 283 -545q255 -215 588 -187 q333 30 545 285q213 255 186 586z" />
<glyph unicode="&#xf054;" horiz-adv-x="2049" d="M1637 645h-1208v322h1208v-322zM1033 1610q-335 0 -570 -234q-235 -237 -236 -570q0 -334 236 -569q237 -237 570 -237t568 237q237 235 237 569t-237 570q-235 234 -568 234z" />
<glyph unicode="&#xf055;" horiz-adv-x="2049" d="M1702 1573q-57 33 -73 17l-704 -705l308 -309l704 705q16 16 -17 72t-98 121q-63 65 -120 99zM1439 1611h-1119v-309q55 1 94 -45q39 -43 40 -107q-1 -65 -40 -111q-39 -45 -94 -45v-61q55 1 94 -45q39 -45 40 -110q-1 -65 -40 -111t-94 -46v-52q55 0 94 -47 q39 -45 40 -109q-1 -64 -40 -109q-39 -46 -94 -47v-257h1119v720l-207 -207l-1 1v-1l-482 -143q-25 1 -29 28l141 485h1v2q21 21 32 30q5 7 17 19l75 76l174 173q145 146 219 218q19 21 60 61v149zM123 1150q-1 -40 23 -67q27 -26 67 -25h94q37 -1 62 25q26 26 26 67 q0 39 -26 65q-25 26 -62 27h-94q-39 -1 -67 -27q-24 -27 -23 -65zM213 862q-39 0 -67 -27q-24 -27 -23 -65v-2q-1 -38 23 -64q27 -27 67 -26h94q37 -1 62 26q26 26 26 64v2q0 39 -26 65q-25 26 -62 27h-94zM395 414q0 38 -26 64q-25 29 -62 28h-94q-39 0 -67 -28 q-24 -26 -23 -64v-1q-1 -39 23 -67q27 -26 67 -25h94q35 -1 62 25q26 26 26 67v1zM998 757q-10 89 -101 101l-90 -312l89 -89l310 93q-3 83 -93 92q-17 97 -115 115z" />
<glyph unicode="&#xf056;" d="M1269 1606h-469v-372h469v372zM800 0h469v373h-469v-373zM800 617h469v372h-469v-372z" />
<glyph unicode="&#xf057;" horiz-adv-x="1256" d="M1256 1600h-687v-371h687v371zM569 -6h687v373h-687v-373zM569 611h687v372h-687v-372z" />
<glyph unicode="&#xf058;" d="M993 670v-1h-343q-17 0 -29 -14q-13 -13 -13 -29q0 -18 13 -29q13 -13 29 -15h343h85h341q18 2 31 15q11 11 12 29q0 16 -12 29q-13 14 -31 14h-341v1h-85zM1078 670h-85h85zM1032 1128q206 3 355 -145q145 -145 146 -357q0 -210 -146 -355q-144 -144 -355 -148 q-213 3 -355 148q-149 147 -149 355t149 357q148 148 355 145zM584 182q182 -182 445 -182q261 0 445 182q182 186 182 444q0 261 -182 444q-184 184 -445 184q-264 0 -445 -184q-186 -183 -183 -444q-3 -258 183 -444z" />
<glyph unicode="&#xf059;" horiz-adv-x="2049" d="M1549 1383q11 24 -32 70q-43 47 -118 91q-72 42 -136 59q-62 16 -74 -6l-550 -979q90 19 118 -69q99 14 133 -79q88 21 108 -64zM614 574l-28 -355l104 -60l284 203q-19 85 -108 64q-35 93 -133 79q-27 88 -118 70zM497 50q-5 -5 -7 -11q-2 -3 -2 -10q1 -7 3 -10 q6 -7 13 -9q8 -5 19 -7q18 -3 34 -3q14 0 20 1q6 0 18 1q2 1 8 1q6 1 10 3q10 2 27 5l48 12q-3 0 38 11q25 9 45 21q24 13 45 25q22 14 40 27q6 5 19 15q15 11 22 17q18 15 44 30q13 8 32 16q49 19 97 33v3q-19 1 -40 -3q-23 -1 -44 -9q-15 -3 -41 -14q-11 -5 -25 -10 q-8 -5 -24 -12q-26 -17 -40 -28q-13 -9 -35 -26q-18 -13 -38 -24q-7 -3 -20 -9q-11 -7 -17 -11q-17 -8 -42 -16q-29 -9 -45 -11q-14 -3 -51 -10q-13 -1 -31 3q-1 -1 -8 4q-8 5 -7 14l6 14q-33 -7 -50 -12q-7 -1 -15 -5zM574 102q-2 -27 23 -14l62 45l-78 46z" />
<glyph unicode="&#xf060;" horiz-adv-x="2049" d="M1763 1317q-1 11 -5 36q-3 21 -12 63q-8 33 -21 64q-14 31 -37 58q-19 22 -46 38q-26 16 -61 26q-30 8 -62 11q-32 1 -64 -3q-8 -1 -12 -1l-269 -42q-9 -1 -14 -2q-35 -5 -67 -15q-26 -7 -53 -27q-30 -22 -51 -48q-1 -1 -5 -4q-2 -3 -5 -5l-670 -901q-25 -34 -39 -66 q-11 -26 -19 -51q-6 -24 -8 -55q-1 -30 6 -57q8 -30 21 -55q9 -18 19 -30q29 -34 78 -66l247 -155q66 -31 129 -30q95 7 179 95l529 666q40 51 47 92q6 40 6 77q-1 39 -7 96q-2 19 -10 67q0 5 -2 14t-4 15q-2 11 -9 35q-9 30 -27 54q-11 16 -29 28q-21 13 -47 20 q-27 9 -56 12q-30 1 -58 1q-29 1 -58 -1q-51 -5 -45 -5q-14 -1 -22 -2q-5 0 -16 -2q-2 0 -10 -1q-75 -5 -131 -54q-48 -41 -84 -93l-464 -618q-2 -3 -2 -8q0 -3 7 -8l58 -40q5 -1 7 -1q6 0 8 2l447 586q1 3 16 24q11 15 19 27q50 62 79 72q25 10 41 12q13 1 30 5q39 5 72 6 q38 3 68 2q32 -1 59 -10q26 -7 39 -29q13 -21 13 -25q10 -39 12 -49q14 -102 10 -165q-5 -50 -26 -82q-26 -37 -25 -34l-474 -600q-115 -147 -258 -54l-203 137q-86 55 -81 139q2 6 1 5q6 47 48 103l625 833q16 21 17 23q21 27 46 48t60 31q34 10 65 15q30 6 62 10 q46 6 113 16q33 3 52 7q39 5 69 3q34 -1 61 -16q29 -14 51 -39q23 -27 32 -61q7 -30 13 -64q15 -73 26 -152q18 -79 1 -135q-18 -55 -46 -92q-21 -26 -31 -40q-30 -39 -39 -52l-273 -344q-45 -54 -86 -109l-102 -122q-3 -3 -2 -10q0 -3 3 -7l62 -41q5 -1 9 -2q3 2 7 6 l537 670q11 17 14 20q3 6 7 10q21 31 32 57q14 32 17 66q3 35 1 71v12z" />
<glyph unicode="&#xf061;" horiz-adv-x="2050" d="M1754 344q-10 -122 -104 -201q-95 -78 -217 -68q-122 11 -201 104q-78 94 -67 218q3 37 13 69q25 75 91 131q50 42 107 58q50 15 110 10q122 -11 201 -105q77 -94 67 -216zM1827 338q14 152 -84 270q-99 118 -252 131q-63 5 -115 -8q-85 -18 -154 -77q-93 -78 -120 -188 q-9 -32 -11 -64q-15 -152 85 -269q98 -117 250 -132q152 -13 271 86q116 98 130 251zM1688 397h-202v202q0 9 -8 17q-7 8 -17 8t-18 -8q-7 -7 -8 -17v-202h-202q-10 -1 -17 -10q-7 -7 -7 -17t7 -18q7 -7 17 -7h202v-203q1 -10 8 -17q7 -8 18 -8q10 0 17 8q8 7 8 17v203h202 q10 0 18 7q7 8 7 18t-7 17q-8 9 -18 10zM841 1609q-157 -1 -268 -113q-110 -111 -110 -266q0 -158 110 -270q112 -110 268 -109q157 -1 266 109q111 112 112 270q-1 155 -112 266q-111 112 -266 113zM234 377h817q1 5 2 15q1 9 1 15q5 39 11 68q31 121 132 207q38 32 78 53 q39 21 82 31q-29 30 -66 52q-42 25 -88 44q-27 -25 -46 -39q-25 -18 -47 -31q-118 -69 -265 -69q-210 0 -364 139q-30 -13 -60 -31q-192 -110 -192 -365q-1 -46 5 -89z" />
<glyph unicode="&#xf062;" horiz-adv-x="2050" d="M1127 1277v-300h299v-168h-299v-299h-168v299h-300v168h300v300h168zM1849 1165q-141 273 -481 386q-341 113 -680 0t-481 -388q-141 -273 1 -546q99 -193 297 -306q32 -169 -72 -311q227 23 440 185q247 -38 496 45q339 114 480 387q142 275 0 548z" />
<glyph unicode="&#xf063;" horiz-adv-x="2049" d="M1809 1584q-34 50 -70 0q-163 -175 -621 -309q-101 -29 -267 -34h-40q-27 -1 -41 -1q-120 -294 0 -589q30 0 81 -1q169 -6 267 -33q459 -135 621 -308q35 -50 70 0v1275zM289 789q39 -62 65 -80q159 -73 356 -59q-123 281 0 590q-170 23 -356 -58q-31 -17 -68 -80 q-40 -64 -38 -157q1 -92 41 -156zM610 488q0 -1 4 -5q18 -39 28 -99q1 -6 7 -40l30 -230q10 -56 44 -81q33 -25 88 -30q50 -5 106 -3q53 2 82 15q32 11 -6 99q-78 191 -71 321q38 11 85 45q50 31 62 72q5 19 3 27q-104 16 -171 19q-69 2 -86 2h-17q-10 -1 -15 -1 q-8 0 -117 -2q-102 -2 -164 12q-63 16 -65 22q8 -34 41 -55q33 -19 92 -47q22 -10 40 -41z" />
<glyph unicode="&#xf064;" horiz-adv-x="2050" d="M1603 1299q141 -147 142 -356q-1 -199 -128 -343l33 -33q141 159 141 375q-1 227 -156 389zM1705 1401q185 -191 186 -459q-1 -258 -170 -446l31 -30q179 199 182 475q-2 285 -199 490zM1822 1518l-31 -31q221 -227 222 -546q-1 -309 -206 -531l30 -28q217 235 219 560 q-2 336 -234 576zM1560 1583q-34 49 -70 0q-162 -175 -619 -309q-101 -29 -266 -33q-14 -1 -40 -1q-27 0 -42 -1q-120 -294 0 -588q30 0 82 -1q168 -5 266 -32q458 -136 619 -308q35 -50 70 0v1273zM2 945q1 -93 41 -156q39 -62 66 -79q158 -74 354 -59q-122 280 0 588 q-170 23 -354 -57q-31 -18 -69 -80q-40 -64 -38 -157zM654 599q-69 2 -86 2q-7 0 -17 -1h-15q-8 -1 -117 -3q-102 -1 -164 12q-63 16 -64 22q8 -34 41 -54q32 -19 91 -47q22 -10 40 -41q1 -1 4 -6q18 -38 28 -98q1 -6 7 -40l30 -230q10 -56 45 -80q33 -25 88 -30 q49 -3 105 -3q51 2 82 14q31 13 -6 99q-78 191 -71 320q37 13 85 45q49 32 61 73q6 17 3 26q-103 18 -170 20z" />
<glyph unicode="&#xf065;" horiz-adv-x="2050" d="M-281 574q1 0 2 1h-2v-1zM866 1174q-19 90 -90 161q-98 99 -237 99t-238 -99q-98 -99 -99 -238q0 -141 99 -239q98 -98 238 -96q81 -1 148 31q26 14 49 30q19 15 40 35q2 1 6 5q63 66 83 150q0 3 2 11q1 7 3 11q5 25 5 62q-1 27 -3 42q0 8 -6 35zM1019 1151 q47 -47 94 -31q23 9 45 31l459 458h-1057zM539 1502q55 0 102 -14l-102 103v-89zM166 773q-171 -98 -172 -325q0 -19 4 -58q0 -6 2 -21h1079q5 41 4 79q0 29 -1 54q-5 31 -7 48q-27 146 -137 210q-34 21 -108 57v-1v0l-7 -7q-48 -48 -106 -76q-79 -39 -178 -39 q-168 -1 -286 115l-3 4q-9 -5 -24 -12q-16 -7 -20 -8q-31 -15 -40 -20zM1838 176q-117 -97 -268 -83t-247 128q-97 117 -83 267q2 42 17 86q30 93 111 161q62 51 131 71q63 18 135 12q151 -14 248 -128q96 -115 84 -266q-14 -151 -128 -248zM2055 417q17 187 -104 332 q-121 144 -309 161q-77 6 -143 -9q-102 -23 -190 -96q-113 -95 -148 -231q-8 -35 -12 -78q-16 -187 104 -334q122 -144 308 -160q190 -16 334 105q143 121 160 310zM1883 488h-248v248q-1 14 -10 23q-8 8 -22 9q-13 -1 -20 -9q-9 -10 -9 -23v-248h-249q-13 -1 -23 -11 q-8 -9 -8 -21q0 -13 8 -22q9 -9 23 -10h249v-249q0 -13 9 -23q8 -8 20 -9q14 1 22 9q9 9 10 23v249h248q14 1 22 10q10 9 10 22q0 11 -10 21q-9 10 -22 11zM931 1199l-1 -2q11 -48 12 -100q0 -37 -6 -73q-3 -19 -6 -29q-23 -95 -93 -172h424l19 17q88 74 194 102q2 1 7 2 q5 0 7 1q5 1 11 2l-253 252l-85 -85q-24 -24 -48 -32q-49 -16 -97 32zM1647 1600l-382 -382l269 -265q54 7 112 1h1v646z" />
<glyph unicode="&#xf066;" horiz-adv-x="2049" d="M1463 929v0l176 681l-919 -1124l-56 -139l-56 275l1031 988l-1503 -821l430 -205l79 -313l154 155l190 -138q-22 67 -22 145q0 205 146 350q126 128 298 144q30 2 52 2zM1665 727v-4q0 -107 -86 -184q-19 -16 -27 -21q-14 -9 -25 -19q-97 -80 18 -150q16 -13 34 -28 q85 -75 86 -180h-399q1 105 87 180q17 15 33 28q115 71 19 150q-11 9 -26 19q-8 6 -26 21q-87 77 -87 184v4h399zM1768 739q-111 112 -262 126q-18 2 -43 2q-10 0 -16 -1q-15 0 -29 -1q-150 -14 -261 -126q-128 -128 -127 -306q-1 -119 57 -216q29 -48 70 -89 q127 -128 306 -128q178 0 305 128q128 127 128 305t-128 306zM1341 613l26 -28q14 -14 36 -32q16 -11 24 -17q19 -15 34 -35q0 -1 1 -4v-257h-3v-1l-2 -1q-18 -9 -47 -15q-23 -6 -33 -9q-33 -8 -51 -14q-30 -9 -38 -13h355q-34 14 -69 22q-14 3 -36 9q-13 3 -34 9 q-9 3 -27 11q-2 1 -6 2h-1v256v0v1q2 3 4 5q11 15 20 21q11 11 24 21q27 23 25 21q30 23 50 48h-252z" />
<glyph unicode="&#xf067;" horiz-adv-x="2046" d="M1601 1371h-1144v-265h1144v265zM1739 635q-11 81 -72 141q-41 40 -90 58q-22 5 -38 7v49q1 18 -12 32q-14 14 -32 14h-1q-19 0 -33 -14t-14 -32v-49q-24 -2 -44 -7q-51 -18 -93 -58q-62 -61 -72 -141q-1 -5 -1 -8v-140q-1 -151 -152 -304h822q-167 153 -166 304 q-1 94 -2 140v8zM1384 885q6 1 16 3v43h-943v-264h728q1 0 1 2v2q13 87 87 151q49 45 111 63zM457 493v-266h592q125 134 134 266h-726zM1581 93q26 25 32 60h-234q6 -35 34 -60q35 -34 83 -35q50 1 85 35z" />
<glyph unicode="&#xf068;" d="M800 933h-343v-264h343v264zM457 1107h343v264h-343v-264zM800 494h-343v-264h343v264zM1715 1319h-800v-159h800v159zM1714 880h-799v-159h799v159zM1714 441h-799v-158h799v158z" />
<glyph unicode="&#xf069;" horiz-adv-x="2049" d="M1803 1498q117 -117 117 -283t-117 -282q-117 -118 -283 -118q-167 0 -283 118q-117 115 -117 282t117 283q117 117 283 117t283 -117zM1518 1715q-208 0 -353 -146q-146 -146 -147 -354q0 -208 147 -354q145 -145 353 -146q209 0 354 146q146 147 146 354 q0 208 -146 354t-354 146zM1815 1457l-60 58l-237 -237l-236 236l-59 -59l236 -237l-238 -237l60 -60l237 238l239 -239l59 59l-239 239zM1429 173q-54 -54 -127 -55q-74 -1 -125 50q-50 49 -50 125q2 73 55 126t127 54t124 -50q51 -50 49 -125q0 -72 -53 -125zM515 991 l-166 -167l147 -146l35 35l-29 30l105 104l28 -29l27 27l394 -396q-46 -70 -48 -159q-1 -123 83 -209q86 -85 208 -82q123 2 212 91q88 88 90 211t-82 208q-86 86 -209 83q-75 -1 -139 -35l-604 603q-105 -5 -110 -110z" />
<glyph unicode="&#xf070;" horiz-adv-x="2049" d="M1913 1176q-14 -165 -140 -271q-128 -106 -293 -91q-166 15 -271 140q-106 127 -91 292q3 48 18 95q33 102 122 176q66 56 143 77q70 22 149 14q165 -14 272 -141q105 -126 91 -291zM1896 1533q-133 159 -338 176q-82 7 -157 -11q-113 -25 -208 -105q-123 -103 -161 -252 q-10 -40 -14 -85q-18 -207 115 -366q131 -157 338 -175q206 -18 363 115q158 134 176 339q19 206 -114 364zM1823 1246h-272v273q-1 14 -10 24q-10 10 -24 10t-23 -10q-10 -10 -12 -24v-273h-272q-14 0 -24 -12q-9 -9 -9 -23t9 -24q10 -10 24 -10h272v-274q1 -14 12 -23 q9 -10 23 -11q15 1 24 11q9 9 10 23v274h272q14 0 24 10q10 11 10 24q0 14 -10 23q-10 11 -24 12zM1424 171q-53 -54 -126 -54q-74 -1 -124 50q-50 49 -49 124q1 73 53 127q53 53 127 53q73 1 125 -49q50 -51 49 -125q-2 -73 -55 -126zM513 987l-166 -165l147 -147l36 36 l-29 30l104 104l29 -30l25 26l394 -393q-45 -70 -47 -159q-2 -123 82 -208q86 -85 208 -82q122 2 210 90t91 210t-83 208q-86 85 -208 83q-75 -1 -138 -36l-602 603q-106 -5 -111 -110z" />
<glyph unicode="&#xf071;" horiz-adv-x="2049" d="M1110 1162l-3 -2l3 2v0zM1314 1610l13 -29l94 -181q-386 -25 -702 -342l433 -434q-34 210 48 389q81 179 298 219l76 -229l175 378zM1421 173q-54 -53 -127 -54q-74 -1 -125 49q-50 50 -49 125q1 74 54 126q54 53 127 54q74 1 124 -50q50 -50 49 -124q0 -73 -53 -126z M509 990l-166 -166l146 -147l37 36l-30 30l104 104l30 -30l25 26l394 -394q-46 -70 -48 -159q-2 -122 82 -208q86 -85 208 -82q122 2 211 90q88 88 90 212q3 122 -82 207q-85 86 -208 83q-75 -1 -137 -35l-604 602q-106 -5 -111 -111z" />
<glyph unicode="&#xf072;" horiz-adv-x="2049" d="M1046 1031l147 -401l482 148l-30 14l-199 63q261 298 260 756h-629q176 -126 248 -315q71 -190 -58 -377zM1448 177q-55 -54 -129 -56q-77 0 -128 52q-51 51 -52 128q2 75 56 130q55 54 131 55q75 0 127 -52q53 -53 51 -127q-2 -75 -56 -130zM513 1015l-170 -170 l151 -150l36 36l-31 31l108 107l30 -31l26 27l403 -404q-46 -71 -48 -163q-2 -126 85 -213q88 -87 212 -85q127 3 216 93q90 90 93 216t-83 213q-88 87 -214 85q-78 -1 -142 -37l-618 619q-109 -5 -113 -114z" />
<glyph unicode="&#xf073;" horiz-adv-x="2050" d="M1779 1190q-177 163 -294 95l-158 -96q-157 19 -345 56q-37 7 -79 -16q-135 -85 -213 -126q-58 -30 -72 -38q-6 -2 -12 -8q-35 -18 -36 -41q0 -24 20 -45l39 -35q17 -9 32 -16q22 -11 60 -13q38 0 58 3q23 2 71 16q53 14 173 83q137 -114 519 -332q-3 2 40 -23h2 q66 5 120 24q131 47 234 141q18 209 -159 371zM1675 577q-5 19 -12 39q-1 1 -4 3q-3 1 -5 0l-55 -11q-2 0 -5 -2q-2 -2 -2 -5q0 -1 1 -4q2 -6 12 -28q5 -16 4 -39q-2 -23 -19 -49q-17 -24 -54 -44l-438 304q-11 9 -26 5q-15 -2 -23 -13q-8 -13 -6 -28v1q2 -15 15 -24 l445 -308q0 -1 1 -6q1 -6 0 -22q-1 -14 -11 -31q-14 -17 -30 -27v-1q-16 -10 -28 -14v-1q-14 -2 -11 -2l-406 282q-11 8 -26 6t-23 -15q-9 -13 -6 -26q2 -14 15 -23v0l396 -276q-2 -6 -3 -8q-6 -17 -25 -39q-18 -22 -44 -29q-26 -6 -38 -6l-299 209q-11 8 -28 6h1 q-15 -2 -23 -14q-8 -13 -5 -27v1q2 -16 15 -24l228 -159q-8 -17 -12 -24q-14 -18 -26 -26q-11 -9 -30 -12v0q-6 0 -16 -1q-43 -2 -92 24h-1l-90 55q-2 2 -6 1q-3 -1 -5 -3l-29 -51q-1 -3 -1 -5q1 -3 4 -5q48 -29 106 -57v0q71 -31 138 -19q65 11 102 69q54 -15 115 -2 q64 14 97 55q32 39 33 74q-5 -1 11 2q9 2 40 18q2 1 7 3q24 13 38 29q15 17 26 37q11 21 14 49q1 25 -1 38q5 2 10 7q9 5 13 7v0q15 9 27 22q9 9 21 25v0q2 2 2 3h1q6 9 7 10q2 3 5 8v2q8 13 12 28q3 13 5 17v1q5 32 -3 69v1zM323 1215l318 -82q2 -1 5 0q31 15 81 42 q2 2 2 4q1 3 0 7q-2 2 -6 4l-417 100q-3 1 -5 -1q-77 -38 -134 -159q-53 -107 -52 -263q0 -10 2 -29q5 -163 106 -272q0 -1 3 -3q2 -1 5 0q2 1 3 3l38 51q2 2 2 5q-1 2 -3 5q-77 73 -82 220v16q-1 10 -2 16q0 130 40 212q43 90 96 124zM522 602q-39 -11 -52 -32q-1 8 -1 9 q-7 35 -36 52q-27 16 -55 12q-27 -3 -44 -17v1l-1 -1v0q-18 -16 -45 -57q-5 -6 -8 -12q-13 -22 -21 -32q-9 -17 -12 -34q-3 -18 3 -35q5 -11 11 -23q10 -19 22 -35q13 -15 28 -32q6 -5 15 -15q9 -9 13 -14q13 -15 27 -28q9 -10 28 -28q40 -35 70 -59q30 -25 29 -25 q11 -8 29 -23q21 -16 27 -21q11 -8 34 -25q5 -2 17 -11q11 -8 18 -13q16 -11 37 -24q18 -13 38 -21q19 -8 41 -4q18 3 31 17q14 9 25 23q9 14 11 18q43 59 69 114q8 19 3 44v1q-8 35 -36 56q-31 19 -64 13q-9 -2 -32 -8q2 5 11 18q11 18 6 56q-7 38 -37 58q-29 19 -64 13 q-16 -2 -32 -8q14 29 6 63t-39 58q-33 22 -70 11z" />
<glyph unicode="&#xf074;" horiz-adv-x="2049" d="M1536 1003l30 -26l52 47l27 -25l-51 -50l48 -47l-25 -25l-47 48l-99 -99q-16 -16 -20 -32q-2 -15 13 -29q5 -5 11 -10q6 -3 14 -5l-17 -30q-14 7 -21 13q-11 6 -18 14q-14 13 -19 28q-6 15 -4 28q1 14 9 27q10 16 22 26l98 98l-26 27zM1369 1134q22 1 44 -7q21 -9 35 -23 q17 -17 24 -37q8 -18 6 -38q-1 -18 -13 -40q-9 -18 -30 -39q-11 -13 -17 -16l-120 120q-27 -32 -27 -63q-1 -34 25 -58q11 -13 26 -20q14 -7 31 -11l-9 -30q-15 2 -39 13q-21 10 -38 27t-26 40q-10 23 -9 46q0 23 11 45q10 25 32 46q23 23 46 33q23 11 48 12zM1257 1450 l30 -29l-103 -102q23 -1 43 -9q21 -7 37 -22q17 -17 24 -37q7 -22 3 -40q-2 -21 -14 -42q-11 -21 -32 -41q-23 -23 -47 -35q-25 -11 -47 -13t-44 5q-19 8 -36 22q-13 14 -20 32q-8 19 -9 42l-1 1l-19 -15l-24 24zM1663 843q19 -3 46 -14q25 -9 46 -32q32 -32 28 -68 q-6 -33 -39 -67l-109 -109l-25 25l19 24l-2 1q-24 1 -44 10q-23 7 -39 22q-23 23 -24 51q-2 29 22 52q30 30 71 20q43 -11 105 -62q9 10 15 17q6 8 8 21q2 10 -2 21q-3 11 -13 22q-15 16 -35 23q-23 8 -37 10zM2056 23v730l-880 880h-730zM1698 677q-31 22 -44 29 q-21 13 -35 15q-15 5 -26 1q-11 -2 -19 -11q-15 -15 -13 -31q2 -15 15 -29q14 -14 31 -18q15 -6 42 -6zM1231 1271q-22 22 -71 23l-94 -94q2 -22 9 -38q8 -16 16 -24q9 -9 26 -16q15 -3 29 -1q15 1 33 12q17 9 34 26q14 14 25 28q8 13 12 29q2 14 -2 27q-3 15 -17 28z M1349 1091q-14 -3 -31 -17l96 -96q27 29 29 54q3 26 -18 47q-8 9 -22 15q-14 5 -26 4q-13 -1 -28 -7z" />
<glyph unicode="&#xf075;" horiz-adv-x="2651" d="M407 215q33 0 55 -22q23 -24 21 -57q1 -32 -21 -53q-22 -24 -55 -25q-33 1 -57 25q-21 19 -22 53q1 34 22 57q24 22 57 22zM110 1231q0 67 68 67h447q71 0 71 -67v-888q0 -67 -71 -69h-447q-69 1 -68 69v888zM2405 1463l-45 -188q-729 431 -1557 32q-6 126 -118 149v107 q1 18 -13 32q-15 14 -33 14h-2q-19 0 -36 -14q-15 -14 -14 -32v-100h-408q-178 0 -179 -169v-1125q1 -168 179 -169h448q177 1 176 169v693q715 518 1501 226l-59 -177l405 132zM593 566q-23 -24 -56 -25q-32 0 -55 22q-23 23 -21 55q0 33 22 56q24 24 58 24q33 0 54 -21 q23 -23 22 -55q0 -33 -24 -56zM115 854l64 -64l16 16l-12 12l46 46l13 -13l12 12l175 -175q-21 -31 -21 -71q-2 -53 37 -92q37 -37 91 -36t94 40q39 39 40 94t-37 91q-38 39 -92 38q-32 -1 -61 -16l-269 267q-47 -2 -49 -49l27 -26z" />
<glyph unicode="&#xf076;" horiz-adv-x="2651" d="M2250 189q1 -31 -20 -52q-22 -23 -54 -23t-54 23q-22 21 -21 52q0 32 21 54q23 22 54 22t54 -22q21 -23 20 -54zM2389 1311q66 0 67 -65v-857q-1 -66 -67 -68h-434q-66 1 -66 68v857q0 65 66 65h434zM2399 1610q-19 0 -34 -13q-14 -13 -14 -31v-96h-393 q-173 -1 -174 -164v-690q-691 -501 -1450 -219l57 171l-391 -128l237 -406l43 182q705 -417 1504 -30v15q11 -143 174 -144h432q170 1 170 164v1085q0 133 -114 157v103q0 18 -13 31q-15 14 -33 13h-1zM2359 710q22 -22 20 -53q-1 -32 -22 -55q-24 -22 -55 -23q-31 0 -53 22 q-22 21 -22 54q1 31 23 54q24 23 55 22q31 2 54 -21zM2306 783q-32 0 -59 -16l-258 259q-46 -2 -48 -48l25 -25l-71 -72l63 -62l15 15l-13 13l45 44l12 -12l12 11l169 -169q-19 -29 -21 -67q-1 -53 36 -89q37 -37 89 -36q51 1 90 39q37 38 38 90q1 54 -35 88q-36 38 -89 37z " />
<glyph unicode="&#xf077;" horiz-adv-x="2049" d="M1642 824l-1 -35q2 -45 -3 -93q-27 -250 -224 -409q-195 -158 -446 -132q-249 26 -407 223q-159 197 -131 446q26 249 223 408q176 142 394 136l-165 137q-175 -35 -325 -155q-245 -197 -279 -509t163 -558q197 -245 510 -278q311 -33 558 163q245 198 278 510 q24 233 -81 428zM867 856l3 2h1zM1598 883l167 724l-874 -6l36 -34l235 -197q-447 -223 -675 -696q8 -133 119 -279q110 -147 290 -179q179 -32 278 30q-99 227 -92 458q9 296 286 479z" />
<glyph unicode="&#xf078;" horiz-adv-x="11381" d="M8344 1565h-51v-720h51v560q0 46 -3 65l376 -625h53v720h-53v-462q0 -67 2 -100q0 -46 3 -68zM9309 1202v52h-288v259h341v52h-395v-720h407v51h-353v306h288zM9943 1513v52h-510v-52h228v-668h57v668h225zM4222 1328q-98 225 -396 225q-257 0 -389 -227h-6 q-181 184 -433 184v-1360h447v663q0 207 51 288q54 82 176 82q168 0 168 -258v-775h447v666q0 194 34 267q41 99 174 100q187 0 187 -233v-800h447v813q0 253 -80 390q-117 200 -401 200q-261 0 -426 -225zM5903 1248q130 0 227 -96q78 -79 92 -183h-638q17 104 91 183 q97 96 228 96zM5387 1347q-131 -122 -181 -281q-34 -106 -35 -231q0 -141 35 -256q53 -166 170 -275q202 -193 538 -193q242 0 424 107q70 43 131 109q89 102 122 235h-418l-43 -50q-93 -97 -227 -97q-135 0 -228 97q-86 89 -93 210h1032q14 343 -145 560q-11 17 -20 27 q-193 245 -546 244q-307 0 -516 -206zM7064 915q0 138 94 237q96 96 229 96q131 0 229 -96q94 -98 94 -237v-168q0 -138 -94 -235q-93 -97 -229 -97q-137 0 -229 97q-94 97 -94 235v168zM6822 1291q-38 -43 -65 -94q-27 -40 -40 -83q-1 -3 -5 -13q-2 -10 -5 -15 q-38 -103 -42 -241q-5 -303 202 -518q138 -147 325 -200q41 -11 128 -22q8 0 25 -2q17 -1 25 -1h55q47 3 130 20q181 41 331 188q215 210 219 508q0 144 -34 243q-6 23 -9 30q-27 75 -31 80q-18 56 -23 100q-22 122 74 284q-217 5 -435 10q-313 3 -501 -55 q-190 -56 -324 -219zM216 1345q-214 -209 -214 -510q0 -296 214 -508q210 -210 520 -210q303 0 518 210q93 93 143 196q17 33 22 51h-416q-35 -49 -48 -62q-97 -97 -230 -97q-135 0 -228 97q-94 97 -94 235v168q0 138 94 237q97 96 228 96q129 0 230 -96q75 -80 88 -183h411 q-13 90 -57 180q-50 104 -143 196q-218 210 -518 210q-305 0 -520 -210zM2213 1248q129 0 230 -96q94 -98 94 -237v-168q0 -138 -94 -235q-97 -97 -230 -97q-135 0 -228 97q-94 97 -94 235v168q0 138 94 237q98 96 228 96zM1496 1018q-21 -70 -21 -120v-128q0 -47 21 -116 q47 -184 191 -327q209 -209 518 -214q137 5 238 40q74 26 108 42q51 17 103 27q117 21 284 -72v439q5 293 -59 497q-63 187 -225 319q-29 23 -97 68q-51 27 -114 46q-120 37 -238 36q-303 0 -518 -210q-144 -144 -191 -327zM11104 973q47 -48 39 -98q-9 -56 -56 -99 l-160 -162l-37 37l29 37q-31 0 -69 14q-37 14 -57 34q-32 33 -36 74q0 47 34 77q41 41 102 28q70 -19 156 -91q5 5 12 14q7 8 11 12q1 6 6 15q5 10 5 16q0 21 -2 32q-5 16 -23 31q-21 19 -49 34q-31 13 -54 17l12 46q34 -6 68 -20q40 -19 69 -48zM10782 1277l43 -37l79 65 l38 -36l-75 -72l71 -68l-36 -38l-71 69l-145 -145q-24 -19 -29 -46q-5 -21 20 -44q34 -17 17 -12q8 -9 17 -9l-23 -42q-25 13 -31 17q-11 6 -28 23q-18 14 -29 39q-6 15 -6 43q6 21 17 37q17 29 31 40l143 145l-38 36zM10651 1425q19 -21 37 -55q9 -30 9 -56q-6 -35 -20 -57 q-11 -24 -43 -60q-11 -8 -26 -22l-176 176q-40 -45 -40 -94q-5 -46 38 -82q14 -18 36 -32q38 -13 46 -14l-11 -46q-40 11 -61 20q-34 18 -54 40q-27 24 -40 57q-14 38 -13 69q0 34 17 67q19 40 48 69q42 37 68 45q34 17 69 17q32 3 65 -8q29 -13 51 -34zM10262 1741 q45 -6 65 -12q37 -14 54 -34q26 -26 34 -54q10 -22 6 -59q-5 -34 -20 -61q-26 -37 -49 -62q-38 -34 -67 -49q-33 -17 -72 -23q-32 0 -62 10q-27 11 -55 34q-11 11 -29 44q-11 27 -11 63h-2l-29 -23l-36 38l380 381l46 -46zM10407 2048h-1073l2048 -2049v1075zM10306 1504 q22 22 35 43q17 29 20 43q0 25 -3 40q-11 29 -25 40q-30 30 -106 34l-137 -137q6 -40 15 -57q7 -18 23 -35q13 -13 37 -21q18 -8 45 -4q8 0 48 17q29 18 48 37zM10506 1408q-29 -11 -45 -29l139 -139q42 42 42 80q8 37 -23 67q-11 11 -34 23q-23 6 -36 6q-22 0 -43 -8z M10819 801q0 -19 22 -42q17 -17 44 -25q19 -7 62 -12l71 73q-14 10 -34 26q-21 16 -29 20q-23 11 -51 23q-24 5 -40 0q-15 -3 -29 -17q-21 -21 -16 -46z" />
<glyph unicode="&#xf079;" horiz-adv-x="2049" d="M1031 1609q-331 0 -568 -234q-234 -237 -233 -569q-1 -331 233 -566q235 -235 568 -237q334 1 567 237q235 233 236 566q-1 334 -236 569q-234 234 -567 234zM1633 935v-257h-473v-473h-257v473h-473v257h473v473h257v-473h473z" />
<glyph unicode="&#xf080;" horiz-adv-x="2026" d="M1031 1607q-331 0 -569 -234q-234 -237 -233 -570q-1 -333 233 -566q237 -235 569 -237q334 1 567 237q235 233 236 566q-1 334 -236 570q-234 234 -567 234zM1633 931v-256h-1204v256h1204z" />
<glyph unicode="&#xf081;" horiz-adv-x="2049" d="M1720 0q7 56 7 101q0 289 -188 400q-29 17 -67 36q-2 1 -31 14q-171 -158 -409 -158q-239 0 -413 158q-21 -8 -34 -16q-24 -11 -35 -18q-218 -127 -219 -416q1 -54 7 -101h1382zM941 672q205 288 379 482q62 -96 53 -216q-13 -142 -122 -232q-110 -91 -251 -80 q-142 13 -233 121q-65 78 -78 172q142 -95 238 -229zM1185 1277q-99 -139 -247 -372l-231 183q29 83 102 144q110 91 250 78q69 -6 126 -33zM1415 1256q149 150 294 254l-245 98q-98 -97 -191 -215q-11 -15 -35 -47q-79 42 -172 51q-176 16 -313 -99q-78 -65 -118 -154 l-115 93l-41 -206q35 -15 78 -36q15 -7 43 -21q-3 -158 101 -280q113 -136 290 -152q178 -16 314 98t151 293q15 159 -77 286z" />
<glyph unicode="&#xf082;" horiz-adv-x="2049" d="M1257 1608h-468v-373h468v373zM1257 990h-468v-372h468v372zM1257 371h-468v-371h468v371zM467 888q-13 93 -83 161q-46 47 -105 69q-26 6 -41 7v57q0 23 -15 37q-15 16 -38 16h-1q-23 0 -38 -16q-16 -16 -16 -37v-57q-29 -2 -51 -7q-59 -21 -106 -69q-71 -67 -84 -161 q0 -2 -2 -9v-81v-83q-1 -174 -175 -350h951q-193 177 -193 350q-2 110 -3 164v9zM51 330q8 -40 39 -69q40 -39 97 -39t96 39q32 30 39 69h-271z" />
<glyph unicode="&#xf083;" horiz-adv-x="2049" d="M1849 1165q-142 274 -482 386q-339 114 -679 0q-339 -113 -481 -388q-141 -272 1 -546q99 -193 297 -305q32 -169 -72 -312q227 24 440 186q247 -38 496 45q339 113 480 387t0 547z" />
<glyph unicode="&#xf084;" horiz-adv-x="2049" d="M841 1609q-157 -1 -268 -113q-110 -111 -110 -267q0 -158 110 -270q111 -109 268 -109q155 0 266 109q111 112 112 270q-1 157 -112 267q-111 112 -266 113zM234 377h817v4v0v0v1l2 2v3v3v1v0v0v4v0v0v0v2v2v0v0v0v1v1v0v1v0v0v0l1 4q3 40 11 68q31 122 132 208 q38 31 78 52q38 22 82 31q-29 30 -67 52q-41 25 -87 45q-27 -25 -46 -39q-25 -18 -48 -31q-117 -69 -266 -69q-209 0 -362 139q-30 -13 -62 -31q-191 -111 -190 -366q-1 -46 5 -88zM1754 344q-10 -122 -104 -201q-95 -79 -217 -68q-122 10 -201 104q-78 94 -67 216 q3 37 13 70q25 77 91 132q50 41 106 57q50 16 111 10q122 -10 201 -104q77 -94 67 -216zM1827 338q14 152 -84 270q-99 118 -252 130q-63 6 -116 -7q-83 -18 -154 -77q-93 -78 -120 -189q-8 -31 -11 -63q-14 -153 85 -271q99 -117 251 -130q152 -14 271 85q116 99 130 252z M1456 626q-45 0 -81 -19q-35 -19 -63 -52l72 -66q13 11 29 24q14 8 33 8q17 0 29 -8q13 -9 14 -30q0 -13 -8 -24q-7 -10 -19 -24q-11 -14 -25 -28q-13 -14 -24 -31q-10 -19 -16 -38q-5 -22 -2 -44h116q-3 18 4 36q6 16 19 32q10 13 25 28q16 17 26 29q10 13 21 34q8 18 8 40 q0 35 -13 60q-11 25 -33 42q-22 16 -51 23q-29 8 -61 8zM1453 256q-33 0 -56 -22q-21 -24 -21 -57t21 -56q23 -23 56 -23t53 23q22 23 22 56q0 34 -22 57q-21 22 -53 22z" />
<glyph unicode="&#xf085;" horiz-adv-x="2049" d="M1710 671q-121 -223 -363 -301q-242 -79 -520 -41q-105 -98 -174 -124q15 61 -5 171q-213 136 -295 290q-115 218 -3 440t399 315t563 -4q277 -96 398 -311q122 -213 0 -435zM1849 1165q-142 273 -482 386q-339 113 -679 0q-339 -113 -481 -388q-141 -273 1 -546 q99 -193 297 -306q32 -169 -72 -311q226 23 456 183q232 -35 480 47q339 114 480 387q142 275 0 548z" />
<glyph unicode="&#xf086;" horiz-adv-x="2049" d="M1155 1279v-1109h-938v1285h820q1 -17 5 -31q25 -94 108 -141q0 -1 5 -4zM1727 1035l271 -172q-178 346 -495 586q7 47 -7 96q-25 94 -113 144q-82 47 -175 23t-145 -107l-2 -3h-992v-1602h1236v1226q105 -251 88 -559l63 198l170 -256q-22 351 -145 642 q165 -166 239 -386zM1059 1334h-754v-164h754v164zM305 838h754v163h-754v-163z" />
<glyph unicode="&#xf087;" horiz-adv-x="2049" d="M1343 1190l-10 -9q-123 -109 -362 -143q-238 -35 -317 -3q-33 15 -108 77l-5 101q361 -145 778 91zM1136 1599q-162 -93 -344 -47q-182 48 -209 19q-26 -30 -33 -93l-7 -203q-62 -27 -118 -65q-193 -123 -171 -251q21 -129 243 -185q15 -5 26 -7q155 -33 342 -4 q15 2 47 7q43 8 104 24q155 42 280 94q118 48 207 103q193 115 170 222q-24 106 -244 162q-58 15 -124 22q-64 263 -169 202zM1273 699q35 94 25 148q-130 -53 -280 -94q-66 -16 -105 -24q5 -48 29 -95q23 -48 65 -67q42 -18 137 11q95 28 129 121zM570 615q39 -58 119 -71 q82 -11 118 3q37 18 52 76q17 57 7 98q-189 -29 -341 5q5 -49 45 -111zM953 201l266 105l-314 -191q-19 223 -166 303q-222 102 -395 300l136 -317q-115 -109 -169 -217q-67 -133 -57 -184h1540q10 61 -43 199q-48 123 -192 276l146 356q-367 -231 -646 -365 q-98 -70 -106 -265z" />
<glyph unicode="&#xf088;" horiz-adv-x="2049" d="M1323 581q1 -122 -85 -208q-87 -88 -209 -90q-120 1 -206 90q-86 86 -86 208q0 121 86 205q86 87 206 86q122 1 209 -86q86 -84 85 -205zM1437 1176q0 -50 -52 -51h-798q-51 1 -51 51v410h901v-410zM1843 1391l-220 219h-1396l-32 -32v-1547l32 -31h1584l32 31v1360z M1281 1503q2 51 -48 51h-94q-51 0 -51 -51v-297q0 -50 51 -49h94q50 -1 48 49v297zM1210 536q-22 21 -51 19q-29 1 -49 -19q-21 -22 -22 -51q1 -30 22 -52q21 -21 49 -19q30 -1 51 19q22 22 23 52q-1 29 -23 51z" />
<glyph unicode="&#xf089;" horiz-adv-x="2049" d="M1093 795v-568q0 -25 -18 -42q-16 -16 -41 -17q-25 1 -41 17q-18 18 -18 42v568q0 24 18 42q16 17 41 17t41 -17q18 -17 18 -42zM759 866q18 -15 20 -40l50 -565q2 -25 -14 -43q-15 -19 -39 -21q-26 -1 -43 13q-18 16 -21 40l-49 566q-2 25 14 43t38 21q26 2 44 -14z M1384 858q15 -18 13 -42l-50 -566q-2 -24 -20 -40q-19 -16 -44 -13q-24 2 -38 20q-16 19 -14 44l49 565q2 24 21 40t43 14q24 -3 40 -22zM1365 1441l24 -8q137 -49 147 -118l1 -9v-2l-1 -10q-8 -69 -147 -120q-149 -54 -359 -54t-359 54q-139 50 -148 120v12v9 q10 67 148 118q15 6 32 12v52q0 34 8 58q-79 -18 -150 -49q-195 -81 -195 -197q0 -31 21 -95q8 -55 61 -101l99 -900v-10q-1 -8 2 -17q13 -73 139 -127q115 -48 265 -57q41 -2 77 -2q200 0 341 59q127 54 140 127q1 9 1 17v10l97 898q62 53 64 90q19 77 20 108 q0 117 -195 197q-67 29 -140 47q7 -24 7 -56v-56zM1331 1493q0 31 -6 51q-22 66 -110 66h-362q-88 0 -110 -65q-8 -22 -8 -52v-157h1q0 -10 13 -18t32 -8t32 8t13 18v0v102q0 18 4 31q14 51 77 50h252q65 1 79 -53q2 -13 2 -28v-102q0 -11 14 -21q14 -8 32 -8q19 0 32 8 q14 9 13 21v0v157z" />
<glyph unicode="&#xf090;" horiz-adv-x="2049" d="M1318 1411v-1q46 37 105 32q63 -3 106 -52q41 -48 38 -112q-5 -59 -46 -100l-250 -218q31 -24 51 -49q35 -40 54 -82l248 217q102 88 110 220q9 135 -79 235q-87 101 -221 109q-134 9 -233 -79l-409 -356q-101 -88 -110 -221q-3 -51 8 -99h-1q18 -71 71 -133 q37 -42 81 -68v-1q63 -37 142 -42q112 -8 201 54q2 2 2 4q-3 49 -39 89q-23 29 -58 43h-2q-39 -25 -84 -24l2 1q-2 0 -6 1h-7q-63 5 -106 53q-41 49 -38 112q1 13 3 24l3 1q10 47 49 80zM883 951q0 -57 38 -100q23 -26 53 -40h1l1 -1q40 25 90 22q64 -5 107 -53 q41 -49 37 -112q-5 -61 -47 -99h2l-415 -362q-49 -43 -113 -39q-63 6 -106 52q-42 50 -38 112q6 64 53 108l247 215q-27 22 -47 44q-37 42 -56 89l-255 -222q-101 -88 -108 -221q-9 -134 78 -234q87 -99 221 -110q134 -9 233 79l408 355q101 89 110 222t-79 234 q-87 99 -220 109q-109 8 -195 -48z" />
<glyph unicode="&#xf091;" horiz-adv-x="2049" d="M1481 1559q-6 7 -18 19q-6 5 -10 11l-19 18l-3 3l-76 -75l18 -17q10 -10 14 -16q13 -11 19 -19q0 1 50 -50q24 -27 24 -64q0 -38 -25 -65v0l-37 -38q-62 41 -140 41q-106 0 -182 -74l-87 -87l364 -363l86 87q74 75 75 181q0 79 -40 140l33 33q59 61 59 145q0 79 -51 136 v0l-2 4zM976 967l-126 -126l-73 72l-68 -68l362 -363l70 69l-74 73l126 126q11 11 12 27q0 16 -12 29q-13 11 -28 11q-16 0 -29 -11l-125 -126l-105 105l126 125q11 13 11 28q0 16 -11 29q-13 11 -29 11q-14 0 -27 -11zM603 739q-75 -74 -75 -180q0 -79 41 -140l-28 -29 q-61 -59 -61 -145q0 -78 51 -136l4 -4l50 -50l18 -18l12 -12l18 -17q2 -3 7 -8l75 77l-20 20q-6 5 -16 15l-18 18l-51 51q-23 27 -23 64q0 39 24 65l34 33q62 -41 140 -41q106 0 181 75l87 87l-363 362z" />
<glyph unicode="&#xf092;" horiz-adv-x="2049" d="M928 990q-136 18 -265 42q-27 6 -60 -11q-105 -66 -163 -96q-17 -10 -14 -8q-8 -3 -24 -13q-11 -6 -17 -9q-7 -3 -10 -6q-27 -15 -26 -32q0 -17 14 -33l30 -27q8 -5 24 -13l9 -3q14 -6 38 -6q23 0 45 1q17 2 54 13q39 11 132 64q62 -51 191 -132q81 -51 207 -123 q29 -16 30 -17h2q54 5 92 18q55 19 103 49q-15 125 -49 240q-26 -1 -57 1q-150 14 -249 122zM159 1009l243 -63q1 0 4 1t20 10q16 8 41 22q2 1 3 4t0 4q-1 3 -4 4l-320 76h-4q-58 -30 -103 -122q-39 -81 -39 -202v-10q0 -8 1 -12q3 -123 81 -209l3 -1q2 -1 3 0q2 1 2 2 l30 39q1 2 1 3q-1 2 -2 5q-58 56 -63 168v24q-1 101 30 163q33 69 73 94zM711 621q2 -13 11 -19h-1l342 -236q0 -3 1 -5v-17q0 -9 -9 -23q-10 -14 -22 -22q-15 -9 -23 -11v0q-11 -2 -8 -2l-311 216q-9 7 -20 4h1q-11 -2 -18 -11q-6 -8 -5 -20q2 -11 12 -18l302 -210l-1 -7 q-3 -10 -19 -30q-15 -16 -34 -21q-21 -6 -29 -5l-230 160q-8 6 -19 5q-13 -2 -18 -12q-6 -9 -5 -20q2 -11 11 -18l175 -122q-6 -13 -9 -18q-8 -11 -19 -21q-9 -6 -24 -8h-6q-3 -1 -6 -1q-33 -2 -71 18l-69 43q-2 1 -5 1q-2 -1 -3 -4l-22 -37q-1 -1 -1 -5q1 -2 2 -3 q47 -27 82 -44q54 -25 106 -16q50 9 78 54q41 -11 87 -1q49 9 76 41q24 30 25 57q3 1 8 2q8 1 31 13q1 1 2 1q2 1 3 2q17 9 29 22q10 13 19 29q9 18 12 37v29q-2 -1 16 10q10 6 20 17h2q8 9 16 20q1 0 2 2q0 1 2 5q1 2 2 3l4 6l1 1q6 13 9 22q2 8 4 13q3 25 -3 54 q-2 14 -9 30q-1 2 -2 2q-2 1 -4 1l-43 -9q-1 0 -3 -2q-1 -1 -2 -4q-1 -1 0 -2q1 -3 5 -10q2 -7 5 -12q3 -13 3 -30q-1 -17 -15 -37q-11 -18 -41 -34l-336 233q-8 7 -19 4v0q-11 -2 -18 -11q-6 -9 -4 -19zM312 541q-30 -8 -41 -26q0 3 -1 8q-5 27 -27 39q-21 13 -42 9 q-22 -2 -34 -12v1v-1h-1v0q-14 -13 -33 -44l-4 -4q-2 -3 -3 -5q-10 -17 -15 -25q-9 -15 -10 -26q-3 -14 2 -26q6 -14 8 -19q8 -14 18 -26q-1 1 21 -24q15 -15 21 -23q7 -7 21 -22q7 -7 22 -20q1 -1 52 -46q5 -3 12 -9q8 -7 11 -10q21 -17 42 -33q9 -6 27 -19q15 -11 27 -19 q16 -11 29 -20q17 -10 28 -14q15 -7 32 -4q14 3 23 14q11 8 20 17q5 7 8 14q33 46 52 87q7 17 4 34v1q-6 27 -29 42q-22 16 -49 9q-11 -1 -24 -4q2 3 9 12q8 15 3 45q-6 29 -27 43q-22 15 -49 11q-8 -1 -24 -7q10 24 3 49q-6 24 -29 43q-24 19 -53 10zM1759 797l295 -171 q-201 352 -541 590q1 10 1 32q-6 113 -90 192q-85 78 -199 73t-192 -89q-79 -85 -73 -200q3 -114 89 -192q85 -78 200 -73q26 1 60 9q8 -19 22 -54q2 -5 7 -17q37 -96 56 -193q26 -127 28 -263q1 -24 0 -49l58 211l192 -264q-32 301 -131 555q-1 3 -4 10q-3 8 -4 10 q-26 64 -44 100q49 -46 94 -100q113 -133 177 -298z" />
<glyph unicode="&#xf093;" horiz-adv-x="2049" d="M1767 701l-294 -424q-105 -152 -257 -48l-803 557q18 -37 52 -68l736 -672q103 -96 199 8l394 429q95 105 -10 202zM600 1347q9 -47 -18 -85t-75 -47q-46 -8 -83 19q-40 27 -49 73q-7 47 19 85q26 39 73 48q47 8 85 -18q39 -28 48 -75zM1754 805q81 117 -35 197l-822 567 q-88 62 -191 32l-421 -75q-54 -22 -56 -78l78 -423q9 -107 100 -169l819 -566q117 -81 198 36z" />
<glyph unicode="&#xf094;" horiz-adv-x="2050" d="M1744 338q-10 -120 -102 -197q-94 -78 -213 -67q-121 10 -199 102q-77 93 -67 214q3 35 14 68q24 74 89 129q49 41 105 58q49 15 108 10q121 -11 199 -104q76 -92 66 -213zM1816 333q14 150 -83 266q-97 115 -247 128q-63 6 -115 -7q-83 -18 -152 -77q-91 -77 -118 -185 q-8 -31 -11 -61q-14 -151 84 -267q97 -115 247 -129q150 -13 266 84q115 97 129 248zM1679 339q10 0 17 7q8 8 8 19q0 9 -8 16q-7 8 -17 9h-199v199q-1 10 -8 18q-8 7 -17 7q-10 0 -17 -7q-7 -8 -8 -18v-199h-199q-10 -1 -17 -9q-7 -6 -7 -16t7 -19q7 -7 17 -7h199v-200 q1 -11 8 -17q7 -8 17 -8t17 8q7 7 8 17v200h199zM1078 1289l-7 -8q-95 -82 -278 -110q-183 -26 -243 -1q-26 11 -83 59l-4 77q278 -111 595 70zM1049 1447q-49 201 -130 155q-123 -71 -263 -36q-139 37 -161 15q-21 -23 -25 -72l-6 -155q-54 -25 -90 -50q-147 -95 -132 -192 q16 -98 188 -142q3 -1 20 -5q118 -25 262 -4q9 2 35 6q42 8 80 19q118 32 214 71q93 38 159 79q147 88 130 170q-17 80 -187 124q-44 12 -94 17zM829 954q-43 -11 -80 -18q3 -37 20 -73q19 -37 50 -52q32 -14 107 10q72 22 98 92q27 71 19 113q-95 -39 -214 -72zM486 848 q30 -46 91 -54q62 -10 90 3q27 15 40 57q13 46 5 76q-143 -23 -261 3q4 -38 35 -85zM743 465q-16 171 -127 232q-170 78 -304 230l105 -242q-88 -82 -130 -166q-51 -101 -45 -143h811v11q1 8 1 13q5 39 11 67q30 120 130 205q35 29 69 47q-7 7 -21 23l111 272 q-279 -175 -493 -280q-74 -53 -83 -203l205 80z" />
<glyph unicode="&#xf095;" horiz-adv-x="2050" d="M1395 984q146 -146 147 -357q0 -208 -147 -354q-147 -147 -356 -148q-209 1 -357 148q-146 146 -146 354q0 210 146 357q147 146 357 146q209 0 356 -146zM1030 1256q-262 0 -445 -184q-184 -183 -184 -445q0 -261 184 -444q183 -183 445 -183t445 183q184 184 184 444 q0 262 -184 445q-183 184 -445 184z" />
<glyph unicode="&#xf096;" horiz-adv-x="2049" d="M1387 984q146 -146 147 -357q0 -208 -147 -354q-146 -147 -356 -148q-209 1 -357 148q-146 146 -146 354q0 210 146 357q147 147 357 147t356 -147zM1029 1256q-262 1 -445 -183q-184 -184 -184 -446q0 -261 184 -444q183 -183 445 -183t445 183q184 184 184 444 q0 262 -184 446q-183 184 -445 183zM1029 942q-130 0 -222 -92q-93 -91 -93 -223q0 -130 93 -222q91 -91 222 -92q131 0 224 92q91 93 91 222q0 131 -91 223q-93 92 -224 92z" />
<glyph unicode="&#xf097;" horiz-adv-x="2049" d="M1491 392q96 1 162 -65q67 -66 66 -161q-5 -98 -73 -168q-69 -70 -165 -73q-97 -1 -164 65q-66 70 -66 167q2 97 71 164q70 70 169 71zM1766 441q-113 111 -275 108q-99 -2 -179 -48l-47 46l-145 -146l38 -38q-61 -94 -63 -211q-2 -160 110 -271q112 -112 274 -110 q160 1 275 117q118 118 120 280q4 161 -108 273zM1643 1133q-24 23 -56 22q-16 0 -27 -4l-6 4l-1065 -1065q-23 -22 -23 -55t23 -56q24 -24 56 -24t56 24v0l1065 1064l-4 6q6 14 5 28q0 32 -24 56zM449 1072l-220 -219l194 -192l47 46l-37 39l136 139l37 -39l36 34l270 -271 l145 145l-540 540q-138 -7 -144 -147z" />
<glyph unicode="&#xf098;" horiz-adv-x="2049" d="M1619 673q-42 0 -72 -30q-27 -27 -29 -61q-1 -43 0 -87h44v-290h-378v290h290q-1 43 0 87q2 53 41 92q43 43 104 44q59 0 103 -44q39 -39 43 -92v-168h-44v84v84q-5 35 -30 61q-30 30 -72 30zM1782 739q-111 111 -262 126q-30 2 -45 1h-16q-5 0 -13 -1h-15 q-151 -15 -262 -126q-128 -128 -127 -306q-1 -119 57 -217q30 -49 70 -89q127 -127 306 -127q178 0 307 127q127 128 127 306t-127 306zM1475 928l176 681l-918 -1123l-56 -139l-56 274l1030 988l-1502 -820l429 -206l79 -312l154 154l189 -137q-19 67 -19 145 q0 205 145 350q126 127 299 144q22 1 50 1v0z" />
<glyph unicode="&#xf099;" horiz-adv-x="2049" d="M171 1610h394v-388h-394v388zM621 1610h56v-56h-56v56zM733 1610h57v-56h56v56h224v-56h-112v-55h-168v-110h-113v-56h-56v166h56v55h56v56zM1182 1610h57v-111h-113v-56h-56v111h112v56zM1295 1610h56v-56h-56v56zM1407 1610h393v-388h-393v388zM227 1554v-277h282v277 h-282zM1463 1554v-277h281v277h-281zM283 1499h170v-166h-170v166zM1239 1499h56v-56h-56v56zM1519 1499h169v-166h-169v166zM846 1443h56v-110h-56v-56h-56v-111h56v111h56v-111h56v-55h56v111h56v55h-56v56h56v56h225v54h56v-277h56v-55h-112v-56h-56v111h56v111h-56v-111 h-57v-111h-56v56h-56v-56h-112v-55h-168v-112h-57v-166h-168v55h-56v-55h56v-56h-56v-56h-56v-111h-56v111h-58v112h58v-56h56v56h-56v55h56v56h-170v55h56v56h-56v-56h-112v112h112v111h-56v-56h-56v111h226v-55h-58v-111h58v55h56v56h56v-56h56v-55h-112v-56h112v56h56 v-112h-112v-55h112v-56h56v278h56v278h57v56h56v54zM958 1443h112v-54h-56v-56h-56v110zM1126 1333v-111h56v111h-56zM902 1333h56v-56h-56v56zM621 1277h56v-55h-56v55zM958 1277h56v-55h-56v55zM509 1166h56v-55h-56v55zM621 1166h56v-55h-56v55zM1519 1166h169v-55h-113 v-56h-56v-167h-56v56h-168v56h56v55h56v-55h56v55h-56v56h112v55zM1744 1166h56v-111h-56v111zM790 1111v-56h56v56h-56zM1182 1055h57v-111h-57v111zM1632 1055h112v-55h-112v55zM1014 1000h112v-56h56v-56h57v56h56v-111h56v-56h56v56h-56v55h112v-166h-56v-56h-225v56h57 v111h-57v-56h-56v56h-168v111h56v56zM1575 1000h57v-56h56v-56h-113v112zM1744 1000h56v-56h-56v56zM846 944h56v-111h-56v-111h-56v166h56v56zM1688 888h112v-111h-56v-167h-56v-165h112v-56h-56v-55h-56v55h-56v-55h-57v-56h169v-56h-56v-111h-56v111h-57v-55h-56v-56h-56 v111h-112v-55h-56v167h-56v-56h-57v56h-112v55h225v56h-169v54h-56v56h-56v-56h56v-54h-168v165h56v167h112v-55h-56v-56h56v-56h56v56h56v-111h57v-56h280v56h56v-56h57v56h-57v55h57v56h56v111h-113v-111h-56v167h169v55zM171 833h56v-56h-56v56zM902 833h56v-56h-56v56z M227 777h112v-55h-112v55zM171 722h56v-56h-56v56zM846 722h56v-56h-56v56zM1070 722h56v-56h-56v56zM227 666h56v-56h-56v56zM677 666h113v-111h56v-56h-113v56h-112v55h56v56zM1463 666h56v-111h-112v55h56v56zM171 610h56v-55h-56v55zM283 610h56v-111h-56v111zM509 610 h56v-55h-56v55zM1295 610h56v-55h-56v55zM227 499h56v-54h-56v54zM339 499h58v-54h-58v54zM509 499h112v-54h-112v54zM1351 445v-167h168v167h-168zM621 445h112v-111h-56v55h-56v56zM171 389h394v-389h-394v389zM958 389h56v-111h-168v-111h-113v55h57v56h-57v56h225v55z M1407 389h56v-55h-56v55zM227 334v-278h282v278h-282zM283 278h170v-167h-170v167zM1014 278h56v-56h56v56h56v-56h57v-55h-57v-56h-56v56h-112v111zM621 222h56v-166h56v-56h-112v222zM902 222h56v-55h-56v55zM1744 222h56v-111h-56v111zM846 167h56v-56h56v-55h-112v111z M958 167h56v-56h-56v56zM733 111h57v-55h-57v55zM1182 111h57v-55h56v55h56v-111h-169v111zM1407 111h56v-55h56v55h113v-55h-57v-56h-168v111zM1688 111h56v-111h-56v111zM790 56h56v-56h-56v56z" />
<glyph unicode="&#xf100;" horiz-adv-x="2049" d="M1385 984q146 -147 146 -357q0 -208 -146 -354q-146 -147 -356 -148q-209 1 -356 148q-147 146 -146 354q-1 209 146 357q146 147 356 146q210 1 356 -146zM1026 1256q-262 0 -444 -184q-184 -183 -184 -445t184 -444q183 -183 444 -183q263 0 446 183q184 183 184 444 q0 262 -184 445q-183 184 -446 184zM846 578h-182l363 -455l364 455h-182v364h-363v-364z" />
<glyph unicode="&#xf101;" horiz-adv-x="2049" d="M859 910h-401v-401h-201l402 -502l402 502h-202v401zM1663 883l-361 364v-318q0 -46 45 -46h316zM1672 817h-317q-120 0 -120 121v318h-525q-46 0 -46 -46v-231h195q29 0 50 -20q21 -21 20 -49v-333h132q27 0 46 -18q21 -18 22 -46q2 -26 -15 -48l-372 -465h884q7 0 9 1 q37 5 37 45v771z" />
<glyph unicode="&#xf102;" horiz-adv-x="2049" d="M1755 344q-10 -122 -104 -201q-95 -78 -217 -68t-201 104t-67 218q2 37 13 69q24 75 91 131q49 42 106 58q50 15 110 10q123 -10 201 -105q78 -94 68 -216zM1827 338q14 152 -84 271q-98 117 -250 130q-64 5 -117 -8q-83 -18 -154 -76q-93 -79 -120 -189q-8 -32 -11 -63 q-14 -153 85 -270q98 -118 251 -132q152 -13 270 86q117 98 130 251zM1677 417h-434v-92h434v92zM841 1609q-157 0 -268 -113q-110 -110 -110 -266q0 -93 38 -169q25 -53 72 -101q112 -110 268 -109q157 -1 268 109q45 46 73 101q37 77 37 169q-1 157 -110 266 q-113 113 -268 113zM472 858q-27 -13 -51 -27q-192 -110 -192 -365q0 -46 5 -89h819q1 19 1 30q5 39 11 68q31 121 133 207q38 32 79 53q38 21 80 31q-27 30 -66 52q-41 25 -86 44q-29 -25 -48 -39q-24 -18 -47 -31q-118 -69 -265 -69q-210 0 -364 139q-4 -2 -9 -4z" />
<glyph unicode="&#xf103;" horiz-adv-x="2049" d="M1936 1328q-126 246 -431 346q-87 29 -176 41q-215 31 -432 -41q-7 -2 -18 -7q-14 -5 -18 -5q265 40 529 -48v0q370 -123 522 -422q57 -111 73 -223q7 25 9 47q22 152 -55 306q-1 1 -3 6zM1705 1099q122 -213 1 -433q-121 -221 -361 -298q-241 -78 -516 -41 q-104 -97 -174 -125q16 61 -4 172q-213 135 -293 288q-115 217 -5 437q112 221 398 312q285 91 560 -3q274 -95 394 -309zM1845 1158q-139 271 -479 384q-337 112 -676 0q-338 -113 -477 -385q-141 -272 0 -544q98 -191 296 -304q31 -168 -71 -309q225 23 452 182 q230 -34 477 47q338 113 478 385q141 272 0 544zM2040 1208q23 137 -48 275q-106 207 -363 293q-253 83 -504 2q206 23 410 -45q317 -104 447 -360q41 -82 58 -165z" />
<glyph unicode="&#xf104;" horiz-adv-x="2049" d="M286 843q5 -138 91 -230q0 -1 2 -3h5q1 1 2 3l33 43q1 2 2 5q-2 3 -3 4q-65 61 -71 188v13v13q-1 111 35 182q35 75 80 104l271 -70q3 0 4 1q34 16 68 35q2 0 3 4q1 3 0 6q-2 3 -5 3l-355 86h-5q-65 -33 -114 -136q-45 -93 -43 -225v-26zM1723 1610q-39 0 -66 -24l-1 1 l-1408 -1408q-31 -31 -31 -74t31 -74t74 -31q42 0 73 31v0l1309 1308v0l94 93q2 3 5 7q25 29 26 67q0 42 -31 73q-32 31 -75 31zM955 1176q-111 -70 -180 -106q-22 -11 -62 -32q-3 -2 -10 -7q-30 -16 -30 -36q0 -21 16 -37l33 -30q7 -5 28 -14q18 -9 51 -10q27 0 49 1 q10 1 15 2l264 264q-39 6 -106 20q-34 4 -68 -15zM1658 1182l-357 -358q87 -53 198 -117q23 -14 35 -20q0 1 2 1q57 3 103 21q111 39 199 120q15 176 -136 315q-20 19 -44 38zM470 664v-1q-16 -14 -38 -47l-3 -6q-1 -3 -3 -4q-11 -19 -18 -29q-8 -13 -10 -27q-3 -15 2 -31 q6 -15 9 -21q9 -16 18 -27l158 156q-6 26 -30 40t-46 12q-24 -3 -38 -15h-1zM777 182q16 -8 34 -5q15 2 28 15q10 8 20 19q6 9 10 16q35 48 58 98q7 18 3 37v0q-7 31 -31 47q-1 1 -9 6l-187 -189q6 -3 10 -8q29 -17 32 -19q15 -10 32 -17zM1600 658h-5l-46 -10q-2 0 -5 -1 q0 -1 -1 -4v-4q6 -10 9 -23q5 -14 5 -34q-1 -21 -15 -41q-15 -19 -47 -38l-304 211l-44 -43l319 -223l1 -1v-4q1 -2 2 -18q-1 -11 -12 -26h1q-10 -14 -25 -23q-16 -10 -24 -13v-1q-13 -1 -10 -1l-332 231l-43 -45l333 -230q-1 -5 -3 -7q-5 -14 -20 -33q-16 -18 -39 -26 q-19 -6 -31 -4l-255 178q-13 7 -24 5q-13 -2 -18 -13q-7 -9 -6 -23q2 -13 13 -19l195 -135q-3 -9 -11 -22q-10 -14 -21 -20q-10 -7 -26 -11q-2 0 -7 -1h-7h-1q-35 -2 -77 21l-77 47q-2 1 -6 0q-1 0 -3 -4l-26 -41q-1 -3 -1 -6l4 -3q49 -29 91 -48v-1q59 -26 117 -17 q55 11 87 59q46 -11 97 -1v0q55 11 83 47q27 33 28 63l10 2q9 1 34 15l6 2q21 11 32 24q13 16 22 32q10 18 11 42q2 21 0 32q6 5 19 13q16 10 23 18v0q13 14 19 21q1 2 2 3t3 5q1 2 3 4q1 1 2 4q1 1 1 2l1 1q5 8 10 24v1l5 15q3 27 -2 60q-3 17 -11 33z" />
<glyph unicode="&#xf105;" horiz-adv-x="2049" d="M229 339l339 -339h432l-771 771v-432zM229 1610v-433l1177 -1177h433z" />
<glyph unicode="&#xf106;" horiz-adv-x="2049" d="M1067 0h432l340 339v432zM1839 1610l-1610 -1610h432l1178 1177v433z" />
<glyph unicode="&#xf107;" horiz-adv-x="2049" d="M568 1610l-339 -339v-432l771 771h-432zM1406 1610l-1177 -1178v-432l1610 1610h-433z" />
<glyph unicode="&#xf108;" horiz-adv-x="2049" d="M1067 1610l772 -771v432l-340 339h-432zM229 1610l1610 -1610v433l-1178 1177h-432z" />
<glyph unicode="&#xf109;" horiz-adv-x="2049" d="M1297 1371v-171h220v-245h197v416h-417zM343 1373v-416h196v244h221v172h-417zM343 647v-418h417v172h-221v246h-196zM1517 646v-246h-220v-173h417v419h-197z" />
<glyph unicode="&#xf110;" horiz-adv-x="2049" d="M1297 1371v-417h417v173h-220v244h-197zM563 1371v-244h-220v-173h418v417h-198zM343 646v-172h220v-245h198v417h-418zM1297 646v-417h197v245h220v172h-417z" />
<glyph unicode="&#xf111;" horiz-adv-x="2049" d="M1275 1152q51 -17 86 -33q106 -56 206 -165q6 -7 23 -26q29 -49 0 -98q-16 -18 -23 -25q-224 -246 -538 -253q-117 0 -238 45l12 -6q-120 47 -194 122q-77 78 -86 89q-30 50 0 100q10 13 22 25q225 246 538 252q96 0 195 -28zM1850 1165q-142 274 -482 387 q-339 113 -680 0q-339 -114 -481 -389q-139 -273 1 -546q99 -193 297 -306q32 -169 -71 -311q226 24 440 185q247 -37 496 46q339 113 480 386q141 275 0 548zM1208 1016q63 -63 63 -152t-63 -152t-152 -63t-152 63t-63 152t63 152t152 63t152 -63zM1086 1113 q-278 -5 -476 -200l-19 -20q-25 -40 0 -80q-5 6 19 -21q88 -88 187 -131q61 -25 114 -35q55 -10 116 -9q277 6 475 201q7 7 19 20q25 40 0 81q-7 7 -19 20q-87 87 -193 135q-50 21 -108 31q-56 11 -115 8zM1056 928q-27 0 -46 -18q-18 -19 -18 -46q0 -25 18 -46 q19 -18 46 -18q26 0 47 18q17 19 18 46q-1 27 -18 46q-20 18 -47 18z" />
<glyph unicode="&#xf112;" horiz-adv-x="2050" d="M1520 1315q-1 -18 -14 -29l-157 -157q120 -63 221 -172q6 -7 23 -28q29 -49 0 -98q-16 -18 -23 -25q-224 -246 -539 -253q-118 2 -228 40l-187 -185q-11 -11 -29 -11q-15 1 -26 14q-10 13 -9 30q0 17 13 30l889 879q13 11 28 10q16 -1 27 -13q11 -14 11 -32zM1174 1192 l-528 -520q-83 55 -156 134q-7 7 -21 25q-29 49 0 98q15 19 21 28q226 246 541 252q77 -2 143 -17zM1853 1167q-142 274 -483 387t-680 0q-341 -114 -482 -388q-141 -273 1 -548q99 -193 297 -306q32 -169 -72 -312q227 24 441 186q247 -38 496 45q341 114 482 387 q142 275 0 549zM1505 941q-94 93 -203 142l-79 -77q51 -59 51 -141q0 -89 -63 -152t-152 -63q-80 0 -138 51l-6 -3q-5 -2 -6 -2l-54 -54q81 -23 175 -24q278 6 475 201q7 7 20 21q25 40 0 80q-7 8 -20 21zM1105 821q18 18 20 44q-1 17 -7 28l-85 -86q13 -6 26 -6q27 1 46 20 z" />
<glyph unicode="&#xf113;" horiz-adv-x="2049" d="M673 984q147 146 357 146q208 0 354 -146q147 -146 149 -357q-1 -209 -149 -355q-146 -147 -354 -146q-209 -1 -357 146q-147 146 -146 355q-1 211 146 357zM1655 629q0 262 -184 444q-183 184 -445 184t-444 -184q-183 -183 -183 -444q0 -263 183 -446 q183 -184 444 -184q262 0 445 184q184 183 184 446zM1209 670h182l-364 455l-363 -455h182v-364h363v364z" />
<glyph unicode="&#xf114;" horiz-adv-x="0" />
</font>
</defs>
</svg>
